<mxfile host="app.diagrams.net" modified="2023-11-13T13:28:10.557Z" agent="Mozilla/5.0 (Windows NT 10.0; Win64; x64) AppleWebKit/537.36 (KHTML, like Gecko) Chrome/119.0.0.0 Safari/537.36" etag="AegFPFrUWSl1Pf9B5AVS" version="22.1.0" type="device" pages="3">
  <diagram id="bYpTJ6qfh-pFWrIBcXdf" name="стандартная">
    <mxGraphModel dx="1517" dy="843" grid="0" gridSize="10" guides="1" tooltips="1" connect="1" arrows="1" fold="1" page="1" pageScale="1" pageWidth="827" pageHeight="1169" math="0" shadow="0">
      <root>
        <mxCell id="0" />
        <mxCell id="1" parent="0" />
        <mxCell id="U-ZUZ9X_83V6-VSvRY3M-29" style="edgeStyle=orthogonalEdgeStyle;rounded=0;orthogonalLoop=1;jettySize=auto;html=1;exitX=0;exitY=0.5;exitDx=0;exitDy=0;exitPerimeter=0;dashed=1;endArrow=none;endFill=0;" parent="1" source="U-ZUZ9X_83V6-VSvRY3M-1" target="U-ZUZ9X_83V6-VSvRY3M-26" edge="1">
          <mxGeometry relative="1" as="geometry" />
        </mxCell>
        <mxCell id="U-ZUZ9X_83V6-VSvRY3M-30" style="edgeStyle=orthogonalEdgeStyle;rounded=0;orthogonalLoop=1;jettySize=auto;html=1;exitX=0.5;exitY=1;exitDx=0;exitDy=0;exitPerimeter=0;entryX=0.5;entryY=0;entryDx=0;entryDy=0;endArrow=classic;endFill=1;" parent="1" source="U-ZUZ9X_83V6-VSvRY3M-1" target="U-ZUZ9X_83V6-VSvRY3M-2" edge="1">
          <mxGeometry relative="1" as="geometry" />
        </mxCell>
        <mxCell id="U-ZUZ9X_83V6-VSvRY3M-1" value="Начало" style="strokeWidth=2;html=1;shape=mxgraph.flowchart.terminator;whiteSpace=wrap;" parent="1" vertex="1">
          <mxGeometry x="279" y="275" width="130" height="40" as="geometry" />
        </mxCell>
        <mxCell id="yRgiXxF6UF61A9Js0S2z-4" style="edgeStyle=orthogonalEdgeStyle;rounded=0;orthogonalLoop=1;jettySize=auto;html=1;entryX=0.5;entryY=0;entryDx=0;entryDy=0;" edge="1" parent="1" source="U-ZUZ9X_83V6-VSvRY3M-2" target="yRgiXxF6UF61A9Js0S2z-2">
          <mxGeometry relative="1" as="geometry" />
        </mxCell>
        <mxCell id="U-ZUZ9X_83V6-VSvRY3M-2" value="n = кол-во столбцов A" style="rounded=0;whiteSpace=wrap;html=1;strokeWidth=2;" parent="1" vertex="1">
          <mxGeometry x="274" y="338" width="140" height="43" as="geometry" />
        </mxCell>
        <mxCell id="U-ZUZ9X_83V6-VSvRY3M-32" style="edgeStyle=orthogonalEdgeStyle;rounded=0;orthogonalLoop=1;jettySize=auto;html=1;exitX=0.5;exitY=1;exitDx=0;exitDy=0;entryX=0.5;entryY=0;entryDx=0;entryDy=0;endArrow=classic;endFill=1;" parent="1" source="U-ZUZ9X_83V6-VSvRY3M-3" target="U-ZUZ9X_83V6-VSvRY3M-4" edge="1">
          <mxGeometry relative="1" as="geometry" />
        </mxCell>
        <mxCell id="U-ZUZ9X_83V6-VSvRY3M-3" value="Цикл i от 0 до n&amp;nbsp;" style="shape=loopLimit;whiteSpace=wrap;html=1;strokeWidth=2;" parent="1" vertex="1">
          <mxGeometry x="276.5" y="549" width="135" height="50" as="geometry" />
        </mxCell>
        <mxCell id="U-ZUZ9X_83V6-VSvRY3M-33" style="edgeStyle=orthogonalEdgeStyle;rounded=0;orthogonalLoop=1;jettySize=auto;html=1;exitX=0.5;exitY=1;exitDx=0;exitDy=0;entryX=0.5;entryY=0;entryDx=0;entryDy=0;endArrow=classic;endFill=1;" parent="1" source="U-ZUZ9X_83V6-VSvRY3M-4" target="U-ZUZ9X_83V6-VSvRY3M-5" edge="1">
          <mxGeometry relative="1" as="geometry" />
        </mxCell>
        <mxCell id="U-ZUZ9X_83V6-VSvRY3M-4" value="Цикл j от 0 до m&amp;nbsp;" style="shape=loopLimit;whiteSpace=wrap;html=1;strokeWidth=2;" parent="1" vertex="1">
          <mxGeometry x="276.5" y="619" width="135" height="50" as="geometry" />
        </mxCell>
        <mxCell id="U-ZUZ9X_83V6-VSvRY3M-34" style="edgeStyle=orthogonalEdgeStyle;rounded=0;orthogonalLoop=1;jettySize=auto;html=1;exitX=0.5;exitY=1;exitDx=0;exitDy=0;entryX=0.5;entryY=0;entryDx=0;entryDy=0;entryPerimeter=0;endArrow=classic;endFill=1;" parent="1" source="U-ZUZ9X_83V6-VSvRY3M-5" target="U-ZUZ9X_83V6-VSvRY3M-6" edge="1">
          <mxGeometry relative="1" as="geometry" />
        </mxCell>
        <mxCell id="U-ZUZ9X_83V6-VSvRY3M-5" value="Цикл k от 0 до q&amp;nbsp;" style="shape=loopLimit;whiteSpace=wrap;html=1;strokeWidth=2;" parent="1" vertex="1">
          <mxGeometry x="276.5" y="689" width="135" height="50" as="geometry" />
        </mxCell>
        <mxCell id="U-ZUZ9X_83V6-VSvRY3M-8" value="" style="group" parent="1" vertex="1" connectable="0">
          <mxGeometry x="314" y="759" width="60" height="60" as="geometry" />
        </mxCell>
        <mxCell id="U-ZUZ9X_83V6-VSvRY3M-6" value="" style="verticalLabelPosition=bottom;verticalAlign=top;html=1;shape=mxgraph.flowchart.on-page_reference;strokeWidth=2;" parent="U-ZUZ9X_83V6-VSvRY3M-8" vertex="1">
          <mxGeometry width="60" height="60" as="geometry" />
        </mxCell>
        <mxCell id="U-ZUZ9X_83V6-VSvRY3M-7" value="A" style="text;html=1;align=center;verticalAlign=middle;resizable=0;points=[];autosize=1;" parent="U-ZUZ9X_83V6-VSvRY3M-8" vertex="1">
          <mxGeometry x="20" y="20" width="20" height="20" as="geometry" />
        </mxCell>
        <mxCell id="U-ZUZ9X_83V6-VSvRY3M-9" value="" style="group" parent="1" vertex="1" connectable="0">
          <mxGeometry x="521.5" y="308" width="60" height="60" as="geometry" />
        </mxCell>
        <mxCell id="U-ZUZ9X_83V6-VSvRY3M-10" value="" style="verticalLabelPosition=bottom;verticalAlign=top;html=1;shape=mxgraph.flowchart.on-page_reference;strokeWidth=2;" parent="U-ZUZ9X_83V6-VSvRY3M-9" vertex="1">
          <mxGeometry width="60" height="60" as="geometry" />
        </mxCell>
        <mxCell id="U-ZUZ9X_83V6-VSvRY3M-11" value="A" style="text;html=1;align=center;verticalAlign=middle;resizable=0;points=[];autosize=1;" parent="U-ZUZ9X_83V6-VSvRY3M-9" vertex="1">
          <mxGeometry x="20" y="20" width="20" height="20" as="geometry" />
        </mxCell>
        <mxCell id="U-ZUZ9X_83V6-VSvRY3M-37" style="edgeStyle=orthogonalEdgeStyle;rounded=0;orthogonalLoop=1;jettySize=auto;html=1;exitX=0.5;exitY=1;exitDx=0;exitDy=0;entryX=0.5;entryY=1;entryDx=0;entryDy=0;endArrow=classic;endFill=1;" parent="1" source="U-ZUZ9X_83V6-VSvRY3M-12" target="U-ZUZ9X_83V6-VSvRY3M-16" edge="1">
          <mxGeometry relative="1" as="geometry" />
        </mxCell>
        <mxCell id="U-ZUZ9X_83V6-VSvRY3M-12" value="&lt;font style=&quot;font-size: 14px&quot;&gt;C[i][j] += A[i][k] * B[k][j]&lt;/font&gt;" style="rounded=0;whiteSpace=wrap;html=1;strokeWidth=2;" parent="1" vertex="1">
          <mxGeometry x="481.5" y="388" width="140" height="60" as="geometry" />
        </mxCell>
        <mxCell id="U-ZUZ9X_83V6-VSvRY3M-18" value="" style="group" parent="1" vertex="1" connectable="0">
          <mxGeometry x="485.25" y="608" width="137.5" height="50" as="geometry" />
        </mxCell>
        <mxCell id="U-ZUZ9X_83V6-VSvRY3M-14" value="" style="shape=loopLimit;whiteSpace=wrap;html=1;strokeWidth=2;rotation=-180;" parent="U-ZUZ9X_83V6-VSvRY3M-18" vertex="1">
          <mxGeometry width="135" height="50" as="geometry" />
        </mxCell>
        <mxCell id="U-ZUZ9X_83V6-VSvRY3M-17" value="&lt;span style=&quot;color: rgb(0, 0, 0); font-family: helvetica; font-size: 12px; font-style: normal; font-weight: 400; letter-spacing: normal; text-align: center; text-indent: 0px; text-transform: none; word-spacing: 0px; background-color: rgb(255, 255, 255); display: inline; float: none;&quot;&gt;Цикл i от 0 до n&amp;nbsp;&lt;/span&gt;" style="text;whiteSpace=wrap;html=1;" parent="U-ZUZ9X_83V6-VSvRY3M-18" vertex="1">
          <mxGeometry x="17.5" y="10" width="120" height="30" as="geometry" />
        </mxCell>
        <mxCell id="U-ZUZ9X_83V6-VSvRY3M-20" value="" style="group" parent="1" vertex="1" connectable="0">
          <mxGeometry x="481.5" y="538" width="140" height="50" as="geometry" />
        </mxCell>
        <mxCell id="U-ZUZ9X_83V6-VSvRY3M-15" value="" style="shape=loopLimit;whiteSpace=wrap;html=1;strokeWidth=2;rotation=-180;" parent="U-ZUZ9X_83V6-VSvRY3M-20" vertex="1">
          <mxGeometry x="1.25" width="135" height="50" as="geometry" />
        </mxCell>
        <mxCell id="U-ZUZ9X_83V6-VSvRY3M-19" value="&lt;span style=&quot;color: rgb(0, 0, 0); font-family: helvetica; font-size: 12px; font-style: normal; font-weight: 400; letter-spacing: normal; text-align: center; text-indent: 0px; text-transform: none; word-spacing: 0px; background-color: rgb(255, 255, 255); display: inline; float: none;&quot;&gt;Цикл j от 0 до m&amp;nbsp;&lt;/span&gt;" style="text;whiteSpace=wrap;html=1;" parent="U-ZUZ9X_83V6-VSvRY3M-20" vertex="1">
          <mxGeometry x="17" y="10" width="120" height="30" as="geometry" />
        </mxCell>
        <mxCell id="U-ZUZ9X_83V6-VSvRY3M-23" value="" style="group" parent="1" vertex="1" connectable="0">
          <mxGeometry x="484" y="468" width="140" height="50" as="geometry" />
        </mxCell>
        <mxCell id="U-ZUZ9X_83V6-VSvRY3M-16" value="" style="shape=loopLimit;whiteSpace=wrap;html=1;strokeWidth=2;rotation=-180;" parent="U-ZUZ9X_83V6-VSvRY3M-23" vertex="1">
          <mxGeometry width="135" height="50" as="geometry" />
        </mxCell>
        <mxCell id="U-ZUZ9X_83V6-VSvRY3M-21" value="&lt;span style=&quot;color: rgb(0, 0, 0); font-family: helvetica; font-size: 12px; font-style: normal; font-weight: 400; letter-spacing: normal; text-align: center; text-indent: 0px; text-transform: none; word-spacing: 0px; background-color: rgb(255, 255, 255); display: inline; float: none;&quot;&gt;Цикл k от 0 до q&amp;nbsp;&lt;/span&gt;" style="text;whiteSpace=wrap;html=1;" parent="U-ZUZ9X_83V6-VSvRY3M-23" vertex="1">
          <mxGeometry x="20" y="10" width="120" height="30" as="geometry" />
        </mxCell>
        <mxCell id="U-ZUZ9X_83V6-VSvRY3M-25" value="Конец" style="strokeWidth=2;html=1;shape=mxgraph.flowchart.terminator;whiteSpace=wrap;" parent="1" vertex="1">
          <mxGeometry x="489" y="688" width="130" height="40" as="geometry" />
        </mxCell>
        <mxCell id="U-ZUZ9X_83V6-VSvRY3M-26" value="&lt;div style=&quot;text-align: right&quot;&gt;&lt;br&gt;&lt;/div&gt;" style="strokeWidth=2;html=1;shape=mxgraph.flowchart.annotation_1;align=left;pointerEvents=1;rotation=-180;" parent="1" vertex="1">
          <mxGeometry x="204" y="250" width="50" height="90" as="geometry" />
        </mxCell>
        <mxCell id="U-ZUZ9X_83V6-VSvRY3M-27" value="&lt;div style=&quot;color: rgb(0 , 0 , 0) ; font-family: &amp;#34;helvetica&amp;#34; ; font-size: 12px ; font-style: normal ; font-weight: 400 ; letter-spacing: normal ; text-indent: 0px ; text-transform: none ; word-spacing: 0px ; text-align: right&quot;&gt;Алгоритм&amp;nbsp;&lt;/div&gt;&lt;div style=&quot;color: rgb(0 , 0 , 0) ; font-family: &amp;#34;helvetica&amp;#34; ; font-size: 12px ; font-style: normal ; font-weight: 400 ; letter-spacing: normal ; text-indent: 0px ; text-transform: none ; word-spacing: 0px ; text-align: right&quot;&gt;стандартного&amp;nbsp;&lt;/div&gt;&lt;div style=&quot;color: rgb(0 , 0 , 0) ; font-family: &amp;#34;helvetica&amp;#34; ; font-size: 12px ; font-style: normal ; font-weight: 400 ; letter-spacing: normal ; text-indent: 0px ; text-transform: none ; word-spacing: 0px ; text-align: right&quot;&gt;умножения&lt;/div&gt;&lt;div style=&quot;color: rgb(0 , 0 , 0) ; font-family: &amp;#34;helvetica&amp;#34; ; font-size: 12px ; font-style: normal ; font-weight: 400 ; letter-spacing: normal ; text-indent: 0px ; text-transform: none ; word-spacing: 0px ; text-align: right&quot;&gt;Вход: матрицы А и В&lt;/div&gt;&lt;div style=&quot;color: rgb(0 , 0 , 0) ; font-family: &amp;#34;helvetica&amp;#34; ; font-size: 12px ; font-style: normal ; font-weight: 400 ; letter-spacing: normal ; text-indent: 0px ; text-transform: none ; word-spacing: 0px ; text-align: right&quot;&gt;Выход: матрица С&lt;/div&gt;" style="text;whiteSpace=wrap;html=1;" parent="1" vertex="1">
          <mxGeometry x="134" y="250" width="120" height="60" as="geometry" />
        </mxCell>
        <mxCell id="U-ZUZ9X_83V6-VSvRY3M-35" style="edgeStyle=orthogonalEdgeStyle;rounded=0;orthogonalLoop=1;jettySize=auto;html=1;exitX=0.5;exitY=1;exitDx=0;exitDy=0;exitPerimeter=0;entryX=0.5;entryY=0;entryDx=0;entryDy=0;endArrow=classic;endFill=1;" parent="1" source="U-ZUZ9X_83V6-VSvRY3M-10" target="U-ZUZ9X_83V6-VSvRY3M-12" edge="1">
          <mxGeometry relative="1" as="geometry" />
        </mxCell>
        <mxCell id="U-ZUZ9X_83V6-VSvRY3M-38" style="edgeStyle=orthogonalEdgeStyle;rounded=0;orthogonalLoop=1;jettySize=auto;html=1;exitX=0.5;exitY=0;exitDx=0;exitDy=0;entryX=0.5;entryY=1;entryDx=0;entryDy=0;endArrow=classic;endFill=1;" parent="1" source="U-ZUZ9X_83V6-VSvRY3M-16" target="U-ZUZ9X_83V6-VSvRY3M-15" edge="1">
          <mxGeometry relative="1" as="geometry" />
        </mxCell>
        <mxCell id="U-ZUZ9X_83V6-VSvRY3M-39" style="edgeStyle=orthogonalEdgeStyle;rounded=0;orthogonalLoop=1;jettySize=auto;html=1;exitX=0.5;exitY=0;exitDx=0;exitDy=0;entryX=0.5;entryY=1;entryDx=0;entryDy=0;endArrow=classic;endFill=1;" parent="1" source="U-ZUZ9X_83V6-VSvRY3M-15" target="U-ZUZ9X_83V6-VSvRY3M-14" edge="1">
          <mxGeometry relative="1" as="geometry" />
        </mxCell>
        <mxCell id="U-ZUZ9X_83V6-VSvRY3M-40" style="edgeStyle=orthogonalEdgeStyle;rounded=0;orthogonalLoop=1;jettySize=auto;html=1;exitX=0.5;exitY=0;exitDx=0;exitDy=0;entryX=0.5;entryY=0;entryDx=0;entryDy=0;entryPerimeter=0;endArrow=classic;endFill=1;" parent="1" source="U-ZUZ9X_83V6-VSvRY3M-14" target="U-ZUZ9X_83V6-VSvRY3M-25" edge="1">
          <mxGeometry relative="1" as="geometry" />
        </mxCell>
        <mxCell id="yRgiXxF6UF61A9Js0S2z-5" style="edgeStyle=orthogonalEdgeStyle;rounded=0;orthogonalLoop=1;jettySize=auto;html=1;entryX=0.5;entryY=0;entryDx=0;entryDy=0;" edge="1" parent="1" source="yRgiXxF6UF61A9Js0S2z-2" target="yRgiXxF6UF61A9Js0S2z-3">
          <mxGeometry relative="1" as="geometry" />
        </mxCell>
        <mxCell id="yRgiXxF6UF61A9Js0S2z-2" value="m = кол-во строк А" style="rounded=0;whiteSpace=wrap;html=1;strokeWidth=2;" vertex="1" parent="1">
          <mxGeometry x="276.5" y="409" width="135" height="45" as="geometry" />
        </mxCell>
        <mxCell id="yRgiXxF6UF61A9Js0S2z-6" style="edgeStyle=orthogonalEdgeStyle;rounded=0;orthogonalLoop=1;jettySize=auto;html=1;entryX=0.5;entryY=0;entryDx=0;entryDy=0;" edge="1" parent="1" source="yRgiXxF6UF61A9Js0S2z-3" target="U-ZUZ9X_83V6-VSvRY3M-3">
          <mxGeometry relative="1" as="geometry" />
        </mxCell>
        <mxCell id="yRgiXxF6UF61A9Js0S2z-3" value="q = кол-во строк B" style="rounded=0;whiteSpace=wrap;html=1;strokeWidth=2;" vertex="1" parent="1">
          <mxGeometry x="276.5" y="477" width="135" height="43" as="geometry" />
        </mxCell>
      </root>
    </mxGraphModel>
  </diagram>
  <diagram id="m2J0F6gVNrPgoO0xjaqQ" name="винограда ">
    <mxGraphModel dx="1071" dy="595" grid="0" gridSize="10" guides="1" tooltips="1" connect="1" arrows="1" fold="1" page="1" pageScale="1" pageWidth="827" pageHeight="1169" math="0" shadow="0">
      <root>
        <mxCell id="3Q6sEPr9P0bj2xC8j2HH-0" />
        <mxCell id="3Q6sEPr9P0bj2xC8j2HH-1" parent="3Q6sEPr9P0bj2xC8j2HH-0" />
        <mxCell id="zbpkN6NbwXP9euEAummU-3" style="edgeStyle=orthogonalEdgeStyle;rounded=0;orthogonalLoop=1;jettySize=auto;html=1;exitX=0.5;exitY=1;exitDx=0;exitDy=0;exitPerimeter=0;entryX=0.5;entryY=0;entryDx=0;entryDy=0;endArrow=classic;endFill=1;" parent="3Q6sEPr9P0bj2xC8j2HH-1" source="jzDQUdgFFqPQzXTCmQUS-0" target="zIN2iYkm2CnEy74Q9T-E-3" edge="1">
          <mxGeometry relative="1" as="geometry" />
        </mxCell>
        <mxCell id="jzDQUdgFFqPQzXTCmQUS-0" value="Начало" style="strokeWidth=2;html=1;shape=mxgraph.flowchart.terminator;whiteSpace=wrap;" parent="3Q6sEPr9P0bj2xC8j2HH-1" vertex="1">
          <mxGeometry x="296" y="302" width="110" height="50" as="geometry" />
        </mxCell>
        <mxCell id="zIN2iYkm2CnEy74Q9T-E-0" style="edgeStyle=orthogonalEdgeStyle;rounded=0;orthogonalLoop=1;jettySize=auto;html=1;exitX=0;exitY=0.5;exitDx=0;exitDy=0;exitPerimeter=0;dashed=1;endArrow=none;endFill=0;" parent="3Q6sEPr9P0bj2xC8j2HH-1" target="zIN2iYkm2CnEy74Q9T-E-1" edge="1">
          <mxGeometry relative="1" as="geometry">
            <mxPoint x="296" y="327" as="sourcePoint" />
          </mxGeometry>
        </mxCell>
        <mxCell id="zIN2iYkm2CnEy74Q9T-E-1" value="&lt;div style=&quot;text-align: right&quot;&gt;&lt;br&gt;&lt;/div&gt;" style="strokeWidth=2;html=1;shape=mxgraph.flowchart.annotation_1;align=left;pointerEvents=1;rotation=-180;" parent="3Q6sEPr9P0bj2xC8j2HH-1" vertex="1">
          <mxGeometry x="221" y="282" width="50" height="90" as="geometry" />
        </mxCell>
        <mxCell id="zIN2iYkm2CnEy74Q9T-E-2" value="&lt;div style=&quot;color: rgb(0 , 0 , 0) ; font-family: &amp;quot;helvetica&amp;quot; ; font-size: 12px ; font-style: normal ; font-weight: 400 ; letter-spacing: normal ; text-indent: 0px ; text-transform: none ; word-spacing: 0px ; text-align: right&quot;&gt;Алгоритм&amp;nbsp;&lt;span&gt;&amp;nbsp;&lt;/span&gt;&lt;/div&gt;&lt;div style=&quot;color: rgb(0 , 0 , 0) ; font-family: &amp;quot;helvetica&amp;quot; ; font-size: 12px ; font-style: normal ; font-weight: 400 ; letter-spacing: normal ; text-indent: 0px ; text-transform: none ; word-spacing: 0px ; text-align: right&quot;&gt;умножения&lt;/div&gt;&lt;div style=&quot;color: rgb(0 , 0 , 0) ; font-family: &amp;quot;helvetica&amp;quot; ; font-size: 12px ; font-style: normal ; font-weight: 400 ; letter-spacing: normal ; text-indent: 0px ; text-transform: none ; word-spacing: 0px ; text-align: right&quot;&gt;по Винограду&lt;/div&gt;&lt;div style=&quot;color: rgb(0 , 0 , 0) ; font-family: &amp;quot;helvetica&amp;quot; ; font-size: 12px ; font-style: normal ; font-weight: 400 ; letter-spacing: normal ; text-indent: 0px ; text-transform: none ; word-spacing: 0px ; text-align: right&quot;&gt;Вход: матрицы A и B&lt;/div&gt;&lt;div style=&quot;color: rgb(0 , 0 , 0) ; font-family: &amp;quot;helvetica&amp;quot; ; font-size: 12px ; font-style: normal ; font-weight: 400 ; letter-spacing: normal ; text-indent: 0px ; text-transform: none ; word-spacing: 0px ; text-align: right&quot;&gt;Выход: матрица C&lt;/div&gt;" style="text;whiteSpace=wrap;html=1;" parent="3Q6sEPr9P0bj2xC8j2HH-1" vertex="1">
          <mxGeometry x="140" y="282" width="131" height="60" as="geometry" />
        </mxCell>
        <mxCell id="pHrV5vuFMvYmXQ6hxdZX-6" value="" style="edgeStyle=orthogonalEdgeStyle;rounded=0;orthogonalLoop=1;jettySize=auto;html=1;" edge="1" parent="3Q6sEPr9P0bj2xC8j2HH-1" source="zIN2iYkm2CnEy74Q9T-E-3" target="pHrV5vuFMvYmXQ6hxdZX-0">
          <mxGeometry relative="1" as="geometry" />
        </mxCell>
        <mxCell id="zIN2iYkm2CnEy74Q9T-E-3" value="&lt;span&gt;a = кол-во строк A&lt;/span&gt;" style="rounded=0;whiteSpace=wrap;html=1;strokeWidth=2;" parent="3Q6sEPr9P0bj2xC8j2HH-1" vertex="1">
          <mxGeometry x="276" y="392" width="150" height="41" as="geometry" />
        </mxCell>
        <mxCell id="zbpkN6NbwXP9euEAummU-5" style="edgeStyle=orthogonalEdgeStyle;rounded=0;orthogonalLoop=1;jettySize=auto;html=1;exitX=0.5;exitY=1;exitDx=0;exitDy=0;entryX=0.5;entryY=0;entryDx=0;entryDy=0;endArrow=classic;endFill=1;" parent="3Q6sEPr9P0bj2xC8j2HH-1" source="zIN2iYkm2CnEy74Q9T-E-4" target="PheqgZE7O7j1xCy4pjIh-0" edge="1">
          <mxGeometry relative="1" as="geometry" />
        </mxCell>
        <mxCell id="zIN2iYkm2CnEy74Q9T-E-4" value="Создание массива rowFactor длиной a" style="rounded=0;whiteSpace=wrap;html=1;strokeWidth=2;" parent="3Q6sEPr9P0bj2xC8j2HH-1" vertex="1">
          <mxGeometry x="276" y="704" width="150" height="60" as="geometry" />
        </mxCell>
        <mxCell id="zbpkN6NbwXP9euEAummU-6" style="edgeStyle=orthogonalEdgeStyle;rounded=0;orthogonalLoop=1;jettySize=auto;html=1;exitX=0.5;exitY=1;exitDx=0;exitDy=0;entryX=0.5;entryY=0;entryDx=0;entryDy=0;endArrow=classic;endFill=1;" parent="3Q6sEPr9P0bj2xC8j2HH-1" source="PheqgZE7O7j1xCy4pjIh-0" target="PheqgZE7O7j1xCy4pjIh-1" edge="1">
          <mxGeometry relative="1" as="geometry" />
        </mxCell>
        <mxCell id="PheqgZE7O7j1xCy4pjIh-0" value="Цикл i от 0 до a&amp;nbsp;" style="shape=loopLimit;whiteSpace=wrap;html=1;strokeWidth=2;" parent="3Q6sEPr9P0bj2xC8j2HH-1" vertex="1">
          <mxGeometry x="276" y="795" width="152.5" height="50" as="geometry" />
        </mxCell>
        <mxCell id="zbpkN6NbwXP9euEAummU-8" style="edgeStyle=orthogonalEdgeStyle;rounded=0;orthogonalLoop=1;jettySize=auto;html=1;exitX=0.5;exitY=1;exitDx=0;exitDy=0;entryX=0.5;entryY=0;entryDx=0;entryDy=0;endArrow=classic;endFill=1;" parent="3Q6sEPr9P0bj2xC8j2HH-1" source="PheqgZE7O7j1xCy4pjIh-1" target="PheqgZE7O7j1xCy4pjIh-2" edge="1">
          <mxGeometry relative="1" as="geometry" />
        </mxCell>
        <mxCell id="PheqgZE7O7j1xCy4pjIh-1" value="Цикл j от 0 до b / 2&amp;nbsp;" style="shape=loopLimit;whiteSpace=wrap;html=1;strokeWidth=2;" parent="3Q6sEPr9P0bj2xC8j2HH-1" vertex="1">
          <mxGeometry x="276" y="869" width="152.5" height="50" as="geometry" />
        </mxCell>
        <mxCell id="zbpkN6NbwXP9euEAummU-9" style="edgeStyle=orthogonalEdgeStyle;rounded=0;orthogonalLoop=1;jettySize=auto;html=1;exitX=0.5;exitY=1;exitDx=0;exitDy=0;entryX=0.5;entryY=0;entryDx=0;entryDy=0;entryPerimeter=0;endArrow=classic;endFill=1;" parent="3Q6sEPr9P0bj2xC8j2HH-1" source="PheqgZE7O7j1xCy4pjIh-2" target="zWFOfngddX3SRT0T7dQw-1" edge="1">
          <mxGeometry relative="1" as="geometry" />
        </mxCell>
        <mxCell id="PheqgZE7O7j1xCy4pjIh-2" value="&lt;font style=&quot;font-size: 12px;&quot;&gt;&lt;font style=&quot;&quot;&gt;rowFactor[i]&lt;/font&gt;&lt;font style=&quot;&quot;&gt; = rowFactor[i] + &lt;br&gt;A[i][2 * j] + A[i][2 * j + 1]&lt;/font&gt;&lt;/font&gt;" style="rounded=0;whiteSpace=wrap;html=1;strokeWidth=2;" parent="3Q6sEPr9P0bj2xC8j2HH-1" vertex="1">
          <mxGeometry x="273.5" y="957" width="155" height="60" as="geometry" />
        </mxCell>
        <mxCell id="zWFOfngddX3SRT0T7dQw-0" value="" style="group" parent="3Q6sEPr9P0bj2xC8j2HH-1" vertex="1" connectable="0">
          <mxGeometry x="323.5" y="1047" width="60" height="60" as="geometry" />
        </mxCell>
        <mxCell id="zWFOfngddX3SRT0T7dQw-1" value="" style="verticalLabelPosition=bottom;verticalAlign=top;html=1;shape=mxgraph.flowchart.on-page_reference;strokeWidth=2;" parent="zWFOfngddX3SRT0T7dQw-0" vertex="1">
          <mxGeometry x="-1.25" y="8" width="60" height="60" as="geometry" />
        </mxCell>
        <mxCell id="zWFOfngddX3SRT0T7dQw-2" value="A" style="text;html=1;align=center;verticalAlign=middle;resizable=0;points=[];autosize=1;" parent="zWFOfngddX3SRT0T7dQw-0" vertex="1">
          <mxGeometry x="20" y="28" width="20" height="20" as="geometry" />
        </mxCell>
        <mxCell id="zWFOfngddX3SRT0T7dQw-3" value="" style="group" parent="3Q6sEPr9P0bj2xC8j2HH-1" vertex="1" connectable="0">
          <mxGeometry x="581" y="302" width="60" height="60" as="geometry" />
        </mxCell>
        <mxCell id="zWFOfngddX3SRT0T7dQw-4" value="" style="verticalLabelPosition=bottom;verticalAlign=top;html=1;shape=mxgraph.flowchart.on-page_reference;strokeWidth=2;" parent="zWFOfngddX3SRT0T7dQw-3" vertex="1">
          <mxGeometry width="60" height="60" as="geometry" />
        </mxCell>
        <mxCell id="zWFOfngddX3SRT0T7dQw-5" value="A" style="text;html=1;align=center;verticalAlign=middle;resizable=0;points=[];autosize=1;" parent="zWFOfngddX3SRT0T7dQw-3" vertex="1">
          <mxGeometry x="20" y="20" width="20" height="20" as="geometry" />
        </mxCell>
        <mxCell id="z0LOa2UjDoidk-_q1wDk-3" value="" style="group" parent="3Q6sEPr9P0bj2xC8j2HH-1" vertex="1" connectable="0">
          <mxGeometry x="540.8199999999999" y="480" width="145" height="50" as="geometry" />
        </mxCell>
        <mxCell id="z0LOa2UjDoidk-_q1wDk-4" value="" style="shape=loopLimit;whiteSpace=wrap;html=1;strokeWidth=2;rotation=-180;" parent="z0LOa2UjDoidk-_q1wDk-3" vertex="1">
          <mxGeometry width="139.82142857142858" height="50" as="geometry" />
        </mxCell>
        <mxCell id="z0LOa2UjDoidk-_q1wDk-5" value="&lt;span style=&quot;text-align: center&quot;&gt;Цикл i от 0 до a&amp;nbsp;&lt;/span&gt;" style="text;whiteSpace=wrap;html=1;" parent="z0LOa2UjDoidk-_q1wDk-3" vertex="1">
          <mxGeometry x="20.714285714285715" y="10" width="124.28571428571429" height="30" as="geometry" />
        </mxCell>
        <mxCell id="zbpkN6NbwXP9euEAummU-13" style="edgeStyle=orthogonalEdgeStyle;rounded=0;orthogonalLoop=1;jettySize=auto;html=1;exitX=0.5;exitY=1;exitDx=0;exitDy=0;entryX=0.5;entryY=0;entryDx=0;entryDy=0;endArrow=classic;endFill=1;" parent="3Q6sEPr9P0bj2xC8j2HH-1" source="z0LOa2UjDoidk-_q1wDk-7" target="z0LOa2UjDoidk-_q1wDk-8" edge="1">
          <mxGeometry relative="1" as="geometry" />
        </mxCell>
        <mxCell id="z0LOa2UjDoidk-_q1wDk-7" value="Цикл i от 0 до c" style="shape=loopLimit;whiteSpace=wrap;html=1;strokeWidth=2;" parent="3Q6sEPr9P0bj2xC8j2HH-1" vertex="1">
          <mxGeometry x="534.75" y="558" width="152.5" height="50" as="geometry" />
        </mxCell>
        <mxCell id="zbpkN6NbwXP9euEAummU-14" style="edgeStyle=orthogonalEdgeStyle;rounded=0;orthogonalLoop=1;jettySize=auto;html=1;exitX=0.5;exitY=1;exitDx=0;exitDy=0;entryX=0.5;entryY=0;entryDx=0;entryDy=0;endArrow=classic;endFill=1;" parent="3Q6sEPr9P0bj2xC8j2HH-1" source="z0LOa2UjDoidk-_q1wDk-8" target="z0LOa2UjDoidk-_q1wDk-9" edge="1">
          <mxGeometry relative="1" as="geometry" />
        </mxCell>
        <mxCell id="z0LOa2UjDoidk-_q1wDk-8" value="Цикл j от 0 до b / 2" style="shape=loopLimit;whiteSpace=wrap;html=1;strokeWidth=2;" parent="3Q6sEPr9P0bj2xC8j2HH-1" vertex="1">
          <mxGeometry x="533.3199999999999" y="634" width="152.5" height="50" as="geometry" />
        </mxCell>
        <mxCell id="zbpkN6NbwXP9euEAummU-15" style="edgeStyle=orthogonalEdgeStyle;rounded=0;orthogonalLoop=1;jettySize=auto;html=1;exitX=0.5;exitY=1;exitDx=0;exitDy=0;entryX=0.5;entryY=0;entryDx=0;entryDy=0;entryPerimeter=0;endArrow=classic;endFill=1;" parent="3Q6sEPr9P0bj2xC8j2HH-1" source="z0LOa2UjDoidk-_q1wDk-9" target="z0LOa2UjDoidk-_q1wDk-11" edge="1">
          <mxGeometry relative="1" as="geometry" />
        </mxCell>
        <mxCell id="z0LOa2UjDoidk-_q1wDk-9" value="&lt;font style=&quot;font-size: 12px;&quot;&gt;&lt;font style=&quot;&quot;&gt;colFactor[i]&lt;/font&gt;&lt;font style=&quot;&quot;&gt; = colFactor[i] +&amp;nbsp;&lt;br&gt;B[2 * j][i] + B[2 * j + 1][i]&lt;/font&gt;&lt;/font&gt;" style="rounded=0;whiteSpace=wrap;html=1;strokeWidth=2;" parent="3Q6sEPr9P0bj2xC8j2HH-1" vertex="1">
          <mxGeometry x="534.5699999999999" y="724" width="150" height="60" as="geometry" />
        </mxCell>
        <mxCell id="z0LOa2UjDoidk-_q1wDk-13" value="" style="group" parent="3Q6sEPr9P0bj2xC8j2HH-1" vertex="1" connectable="0">
          <mxGeometry x="156.25" y="1401" width="60" height="60" as="geometry" />
        </mxCell>
        <mxCell id="z0LOa2UjDoidk-_q1wDk-14" value="" style="verticalLabelPosition=bottom;verticalAlign=top;html=1;shape=mxgraph.flowchart.on-page_reference;strokeWidth=2;" parent="z0LOa2UjDoidk-_q1wDk-13" vertex="1">
          <mxGeometry width="60" height="60" as="geometry" />
        </mxCell>
        <mxCell id="z0LOa2UjDoidk-_q1wDk-15" value="Б" style="text;html=1;align=center;verticalAlign=middle;resizable=0;points=[];autosize=1;" parent="z0LOa2UjDoidk-_q1wDk-13" vertex="1">
          <mxGeometry x="20" y="20" width="20" height="20" as="geometry" />
        </mxCell>
        <mxCell id="z0LOa2UjDoidk-_q1wDk-16" value="" style="group" parent="3Q6sEPr9P0bj2xC8j2HH-1" vertex="1" connectable="0">
          <mxGeometry x="116.25" y="1491" width="145" height="50" as="geometry" />
        </mxCell>
        <mxCell id="z0LOa2UjDoidk-_q1wDk-17" value="" style="shape=loopLimit;whiteSpace=wrap;html=1;strokeWidth=2;rotation=-180;" parent="z0LOa2UjDoidk-_q1wDk-16" vertex="1">
          <mxGeometry width="139.82142857142858" height="50" as="geometry" />
        </mxCell>
        <mxCell id="z0LOa2UjDoidk-_q1wDk-18" value="&lt;span&gt;Цикл j от 0 до b / 2&lt;/span&gt;&lt;span&gt;&amp;nbsp;&lt;/span&gt;" style="text;whiteSpace=wrap;html=1;align=center;" parent="z0LOa2UjDoidk-_q1wDk-16" vertex="1">
          <mxGeometry x="-10" y="10" width="155" height="30" as="geometry" />
        </mxCell>
        <mxCell id="z0LOa2UjDoidk-_q1wDk-20" value="" style="group" parent="3Q6sEPr9P0bj2xC8j2HH-1" vertex="1" connectable="0">
          <mxGeometry x="116.25" y="1561" width="145" height="50" as="geometry" />
        </mxCell>
        <mxCell id="z0LOa2UjDoidk-_q1wDk-21" value="" style="shape=loopLimit;whiteSpace=wrap;html=1;strokeWidth=2;rotation=-180;" parent="z0LOa2UjDoidk-_q1wDk-20" vertex="1">
          <mxGeometry y="11" width="139.82142857142858" height="50" as="geometry" />
        </mxCell>
        <mxCell id="z0LOa2UjDoidk-_q1wDk-22" value="&lt;span style=&quot;text-align: center&quot;&gt;Цикл i от 0 до c&lt;/span&gt;" style="text;whiteSpace=wrap;html=1;" parent="z0LOa2UjDoidk-_q1wDk-20" vertex="1">
          <mxGeometry x="20.714285714285715" y="21" width="124.28571428571429" height="30" as="geometry" />
        </mxCell>
        <mxCell id="zbpkN6NbwXP9euEAummU-19" style="edgeStyle=orthogonalEdgeStyle;rounded=0;orthogonalLoop=1;jettySize=auto;html=1;exitX=0.5;exitY=1;exitDx=0;exitDy=0;entryX=0.5;entryY=0;entryDx=0;entryDy=0;endArrow=classic;endFill=1;" parent="3Q6sEPr9P0bj2xC8j2HH-1" source="z0LOa2UjDoidk-_q1wDk-23" target="z0LOa2UjDoidk-_q1wDk-24" edge="1">
          <mxGeometry relative="1" as="geometry" />
        </mxCell>
        <mxCell id="z0LOa2UjDoidk-_q1wDk-23" value="Цикл i от 0 до a" style="shape=loopLimit;whiteSpace=wrap;html=1;strokeWidth=2;" parent="3Q6sEPr9P0bj2xC8j2HH-1" vertex="1">
          <mxGeometry x="110.00000000000001" y="1652" width="152.5" height="50" as="geometry" />
        </mxCell>
        <mxCell id="zbpkN6NbwXP9euEAummU-20" style="edgeStyle=orthogonalEdgeStyle;rounded=0;orthogonalLoop=1;jettySize=auto;html=1;exitX=0.5;exitY=1;exitDx=0;exitDy=0;entryX=0.5;entryY=0;entryDx=0;entryDy=0;endArrow=classic;endFill=1;" parent="3Q6sEPr9P0bj2xC8j2HH-1" source="z0LOa2UjDoidk-_q1wDk-24" target="z0LOa2UjDoidk-_q1wDk-25" edge="1">
          <mxGeometry relative="1" as="geometry" />
        </mxCell>
        <mxCell id="z0LOa2UjDoidk-_q1wDk-24" value="Цикл j от 0 до c" style="shape=loopLimit;whiteSpace=wrap;html=1;strokeWidth=2;" parent="3Q6sEPr9P0bj2xC8j2HH-1" vertex="1">
          <mxGeometry x="110.00000000000001" y="1743" width="152.5" height="50" as="geometry" />
        </mxCell>
        <mxCell id="zbpkN6NbwXP9euEAummU-21" style="edgeStyle=orthogonalEdgeStyle;rounded=0;orthogonalLoop=1;jettySize=auto;html=1;exitX=0.5;exitY=1;exitDx=0;exitDy=0;entryX=0.5;entryY=0;entryDx=0;entryDy=0;entryPerimeter=0;endArrow=classic;endFill=1;" parent="3Q6sEPr9P0bj2xC8j2HH-1" source="z0LOa2UjDoidk-_q1wDk-25" target="z0LOa2UjDoidk-_q1wDk-27" edge="1">
          <mxGeometry relative="1" as="geometry" />
        </mxCell>
        <mxCell id="z0LOa2UjDoidk-_q1wDk-25" value="&lt;font style=&quot;font-size: 12px;&quot;&gt;C[i][j] = C[i][j] - &lt;br&gt;(rowFactorA[i] + colFactor[j])&lt;/font&gt;" style="rounded=0;whiteSpace=wrap;html=1;strokeWidth=2;" parent="3Q6sEPr9P0bj2xC8j2HH-1" vertex="1">
          <mxGeometry x="111.25000000000001" y="1837" width="150" height="60" as="geometry" />
        </mxCell>
        <mxCell id="z0LOa2UjDoidk-_q1wDk-26" value="" style="group" parent="3Q6sEPr9P0bj2xC8j2HH-1" vertex="1" connectable="0">
          <mxGeometry x="160.63" y="1951" width="60" height="60" as="geometry" />
        </mxCell>
        <mxCell id="z0LOa2UjDoidk-_q1wDk-27" value="" style="verticalLabelPosition=bottom;verticalAlign=top;html=1;shape=mxgraph.flowchart.on-page_reference;strokeWidth=2;" parent="z0LOa2UjDoidk-_q1wDk-26" vertex="1">
          <mxGeometry x="-4.38" y="-6" width="60" height="60" as="geometry" />
        </mxCell>
        <mxCell id="z0LOa2UjDoidk-_q1wDk-28" value="В" style="text;html=1;align=center;verticalAlign=middle;resizable=0;points=[];autosize=1;" parent="z0LOa2UjDoidk-_q1wDk-26" vertex="1">
          <mxGeometry x="15.620000000000001" y="17" width="20" height="20" as="geometry" />
        </mxCell>
        <mxCell id="z0LOa2UjDoidk-_q1wDk-29" value="" style="group" parent="3Q6sEPr9P0bj2xC8j2HH-1" vertex="1" connectable="0">
          <mxGeometry x="357.25" y="1397" width="60" height="60" as="geometry" />
        </mxCell>
        <mxCell id="z0LOa2UjDoidk-_q1wDk-30" value="" style="verticalLabelPosition=bottom;verticalAlign=top;html=1;shape=mxgraph.flowchart.on-page_reference;strokeWidth=2;" parent="z0LOa2UjDoidk-_q1wDk-29" vertex="1">
          <mxGeometry x="2.75" width="60" height="60" as="geometry" />
        </mxCell>
        <mxCell id="z0LOa2UjDoidk-_q1wDk-31" value="В" style="text;html=1;align=center;verticalAlign=middle;resizable=0;points=[];autosize=1;" parent="z0LOa2UjDoidk-_q1wDk-29" vertex="1">
          <mxGeometry x="22.75" y="20" width="20" height="20" as="geometry" />
        </mxCell>
        <mxCell id="zbpkN6NbwXP9euEAummU-23" style="edgeStyle=orthogonalEdgeStyle;rounded=0;orthogonalLoop=1;jettySize=auto;html=1;exitX=0.5;exitY=1;exitDx=0;exitDy=0;entryX=0.5;entryY=0;entryDx=0;entryDy=0;endArrow=classic;endFill=1;" parent="3Q6sEPr9P0bj2xC8j2HH-1" source="z0LOa2UjDoidk-_q1wDk-32" target="z0LOa2UjDoidk-_q1wDk-33" edge="1">
          <mxGeometry relative="1" as="geometry" />
        </mxCell>
        <mxCell id="z0LOa2UjDoidk-_q1wDk-32" value="Цикл k от 0 до b / 2" style="shape=loopLimit;whiteSpace=wrap;html=1;strokeWidth=2;" parent="3Q6sEPr9P0bj2xC8j2HH-1" vertex="1">
          <mxGeometry x="313.75" y="1481" width="152.5" height="50" as="geometry" />
        </mxCell>
        <mxCell id="3UE18Dh6LSY7xeBXPmZx-7" style="edgeStyle=orthogonalEdgeStyle;rounded=0;orthogonalLoop=1;jettySize=auto;html=1;exitX=0.5;exitY=1;exitDx=0;exitDy=0;entryX=0.5;entryY=0;entryDx=0;entryDy=0;" parent="3Q6sEPr9P0bj2xC8j2HH-1" source="z0LOa2UjDoidk-_q1wDk-33" edge="1">
          <mxGeometry relative="1" as="geometry">
            <mxPoint x="393.75" y="1625" as="targetPoint" />
          </mxGeometry>
        </mxCell>
        <mxCell id="XfjBKYWB6bPaXLf-iaAs-2" style="edgeStyle=orthogonalEdgeStyle;rounded=0;orthogonalLoop=1;jettySize=auto;html=1;entryX=0.5;entryY=1;entryDx=0;entryDy=0;" parent="3Q6sEPr9P0bj2xC8j2HH-1" source="z0LOa2UjDoidk-_q1wDk-33" target="z0LOa2UjDoidk-_q1wDk-35" edge="1">
          <mxGeometry relative="1" as="geometry" />
        </mxCell>
        <mxCell id="z0LOa2UjDoidk-_q1wDk-33" value="&lt;font style=&quot;font-size: 12px;&quot;&gt;C[i][j] += &lt;br&gt;(A[i][2 * k] + B[2 * k + 1][j]) *&lt;br&gt;(A[i][2 * k + 1] + B[2 * k][j)&lt;/font&gt;" style="rounded=0;whiteSpace=wrap;html=1;strokeWidth=2;" parent="3Q6sEPr9P0bj2xC8j2HH-1" vertex="1">
          <mxGeometry x="310.75" y="1561" width="158" height="72" as="geometry" />
        </mxCell>
        <mxCell id="z0LOa2UjDoidk-_q1wDk-34" value="" style="group" parent="3Q6sEPr9P0bj2xC8j2HH-1" vertex="1" connectable="0">
          <mxGeometry x="320.25" y="1663" width="145" height="50" as="geometry" />
        </mxCell>
        <mxCell id="z0LOa2UjDoidk-_q1wDk-35" value="" style="shape=loopLimit;whiteSpace=wrap;html=1;strokeWidth=2;rotation=-180;" parent="z0LOa2UjDoidk-_q1wDk-34" vertex="1">
          <mxGeometry width="139.82142857142858" height="50" as="geometry" />
        </mxCell>
        <mxCell id="z0LOa2UjDoidk-_q1wDk-36" value="&lt;span style=&quot;text-align: center&quot;&gt;Цикл k от 0 до b / 2&lt;br&gt;&lt;/span&gt;" style="text;whiteSpace=wrap;html=1;" parent="z0LOa2UjDoidk-_q1wDk-34" vertex="1">
          <mxGeometry x="20.714285714285715" y="10" width="124.28571428571429" height="30" as="geometry" />
        </mxCell>
        <mxCell id="z0LOa2UjDoidk-_q1wDk-48" value="" style="group" parent="3Q6sEPr9P0bj2xC8j2HH-1" vertex="1" connectable="0">
          <mxGeometry x="320.25" y="1747" width="145" height="50" as="geometry" />
        </mxCell>
        <mxCell id="z0LOa2UjDoidk-_q1wDk-49" value="" style="shape=loopLimit;whiteSpace=wrap;html=1;strokeWidth=2;rotation=-180;" parent="z0LOa2UjDoidk-_q1wDk-48" vertex="1">
          <mxGeometry width="139.82142857142858" height="50" as="geometry" />
        </mxCell>
        <mxCell id="z0LOa2UjDoidk-_q1wDk-50" value="&lt;span style=&quot;text-align: center&quot;&gt;Цикл j от 0 до c&amp;nbsp;&lt;/span&gt;" style="text;whiteSpace=wrap;html=1;" parent="z0LOa2UjDoidk-_q1wDk-48" vertex="1">
          <mxGeometry x="20.714285714285715" y="10" width="124.28571428571429" height="30" as="geometry" />
        </mxCell>
        <mxCell id="z0LOa2UjDoidk-_q1wDk-51" value="" style="group" parent="3Q6sEPr9P0bj2xC8j2HH-1" vertex="1" connectable="0">
          <mxGeometry x="320.25" y="1845" width="145" height="50" as="geometry" />
        </mxCell>
        <mxCell id="z0LOa2UjDoidk-_q1wDk-52" value="" style="shape=loopLimit;whiteSpace=wrap;html=1;strokeWidth=2;rotation=-180;" parent="z0LOa2UjDoidk-_q1wDk-51" vertex="1">
          <mxGeometry width="139.82142857142858" height="50" as="geometry" />
        </mxCell>
        <mxCell id="z0LOa2UjDoidk-_q1wDk-53" value="&lt;span style=&quot;text-align: center&quot;&gt;Цикл i от 0 до a&amp;nbsp;&lt;/span&gt;" style="text;whiteSpace=wrap;html=1;" parent="z0LOa2UjDoidk-_q1wDk-51" vertex="1">
          <mxGeometry x="20.714285714285715" y="10" width="124.28571428571429" height="30" as="geometry" />
        </mxCell>
        <mxCell id="zbpkN6NbwXP9euEAummU-1" value="" style="group" parent="3Q6sEPr9P0bj2xC8j2HH-1" vertex="1" connectable="0">
          <mxGeometry x="537.25" y="392" width="144.6428571428571" height="50" as="geometry" />
        </mxCell>
        <mxCell id="z0LOa2UjDoidk-_q1wDk-1" value="" style="shape=loopLimit;whiteSpace=wrap;html=1;strokeWidth=2;rotation=-180;" parent="zbpkN6NbwXP9euEAummU-1" vertex="1">
          <mxGeometry y="5" width="144.64285714285714" height="50" as="geometry" />
        </mxCell>
        <mxCell id="z0LOa2UjDoidk-_q1wDk-2" value="&lt;span&gt;Цикл j от 0 до b / 2&lt;br&gt;&lt;/span&gt;" style="text;whiteSpace=wrap;html=1;align=center;" parent="zbpkN6NbwXP9euEAummU-1" vertex="1">
          <mxGeometry x="13.218571428571465" y="15" width="128.57142857142856" height="30" as="geometry" />
        </mxCell>
        <mxCell id="zbpkN6NbwXP9euEAummU-10" style="edgeStyle=orthogonalEdgeStyle;rounded=0;orthogonalLoop=1;jettySize=auto;html=1;exitX=0.5;exitY=1;exitDx=0;exitDy=0;exitPerimeter=0;entryX=0.5;entryY=1;entryDx=0;entryDy=0;endArrow=classic;endFill=1;" parent="3Q6sEPr9P0bj2xC8j2HH-1" source="zWFOfngddX3SRT0T7dQw-4" target="z0LOa2UjDoidk-_q1wDk-1" edge="1">
          <mxGeometry relative="1" as="geometry" />
        </mxCell>
        <mxCell id="zbpkN6NbwXP9euEAummU-11" style="edgeStyle=orthogonalEdgeStyle;rounded=0;orthogonalLoop=1;jettySize=auto;html=1;exitX=0.5;exitY=0;exitDx=0;exitDy=0;entryX=0.5;entryY=1;entryDx=0;entryDy=0;endArrow=classic;endFill=1;" parent="3Q6sEPr9P0bj2xC8j2HH-1" source="z0LOa2UjDoidk-_q1wDk-1" target="z0LOa2UjDoidk-_q1wDk-4" edge="1">
          <mxGeometry relative="1" as="geometry" />
        </mxCell>
        <mxCell id="zbpkN6NbwXP9euEAummU-12" style="edgeStyle=orthogonalEdgeStyle;rounded=0;orthogonalLoop=1;jettySize=auto;html=1;exitX=0.5;exitY=0;exitDx=0;exitDy=0;entryX=0.5;entryY=0;entryDx=0;entryDy=0;endArrow=classic;endFill=1;" parent="3Q6sEPr9P0bj2xC8j2HH-1" source="z0LOa2UjDoidk-_q1wDk-4" target="z0LOa2UjDoidk-_q1wDk-7" edge="1">
          <mxGeometry relative="1" as="geometry" />
        </mxCell>
        <mxCell id="zbpkN6NbwXP9euEAummU-22" style="edgeStyle=orthogonalEdgeStyle;rounded=0;orthogonalLoop=1;jettySize=auto;html=1;exitX=0.5;exitY=1;exitDx=0;exitDy=0;exitPerimeter=0;entryX=0.5;entryY=0;entryDx=0;entryDy=0;endArrow=classic;endFill=1;" parent="3Q6sEPr9P0bj2xC8j2HH-1" source="z0LOa2UjDoidk-_q1wDk-30" target="z0LOa2UjDoidk-_q1wDk-32" edge="1">
          <mxGeometry relative="1" as="geometry" />
        </mxCell>
        <mxCell id="zbpkN6NbwXP9euEAummU-28" style="edgeStyle=orthogonalEdgeStyle;rounded=0;orthogonalLoop=1;jettySize=auto;html=1;exitX=0.5;exitY=0;exitDx=0;exitDy=0;entryX=0.5;entryY=0;entryDx=0;entryDy=0;entryPerimeter=0;endArrow=classic;endFill=1;" parent="3Q6sEPr9P0bj2xC8j2HH-1" source="z0LOa2UjDoidk-_q1wDk-52" target="gOxhsNr-2nOPmDP1YWpE-7" edge="1">
          <mxGeometry relative="1" as="geometry" />
        </mxCell>
        <mxCell id="zbpkN6NbwXP9euEAummU-29" style="edgeStyle=orthogonalEdgeStyle;rounded=0;orthogonalLoop=1;jettySize=auto;html=1;exitX=0.5;exitY=0;exitDx=0;exitDy=0;entryX=0.5;entryY=1;entryDx=0;entryDy=0;endArrow=classic;endFill=1;" parent="3Q6sEPr9P0bj2xC8j2HH-1" source="z0LOa2UjDoidk-_q1wDk-49" target="z0LOa2UjDoidk-_q1wDk-52" edge="1">
          <mxGeometry relative="1" as="geometry" />
        </mxCell>
        <mxCell id="3UE18Dh6LSY7xeBXPmZx-1" style="edgeStyle=orthogonalEdgeStyle;rounded=0;orthogonalLoop=1;jettySize=auto;html=1;exitX=0.5;exitY=0;exitDx=0;exitDy=0;entryX=0.5;entryY=0;entryDx=0;entryDy=0;" parent="3Q6sEPr9P0bj2xC8j2HH-1" source="z0LOa2UjDoidk-_q1wDk-21" target="z0LOa2UjDoidk-_q1wDk-23" edge="1">
          <mxGeometry relative="1" as="geometry">
            <mxPoint x="186.1465517241379" y="1635.9999999999998" as="targetPoint" />
          </mxGeometry>
        </mxCell>
        <mxCell id="3UE18Dh6LSY7xeBXPmZx-10" style="edgeStyle=orthogonalEdgeStyle;rounded=0;orthogonalLoop=1;jettySize=auto;html=1;exitX=0.5;exitY=0;exitDx=0;exitDy=0;entryX=0.5;entryY=1;entryDx=0;entryDy=0;" parent="3Q6sEPr9P0bj2xC8j2HH-1" source="z0LOa2UjDoidk-_q1wDk-35" target="z0LOa2UjDoidk-_q1wDk-49" edge="1">
          <mxGeometry relative="1" as="geometry" />
        </mxCell>
        <mxCell id="z0LOa2UjDoidk-_q1wDk-11" value="" style="verticalLabelPosition=bottom;verticalAlign=top;html=1;shape=mxgraph.flowchart.on-page_reference;strokeWidth=2;" parent="3Q6sEPr9P0bj2xC8j2HH-1" vertex="1">
          <mxGeometry x="579.57" y="827" width="60" height="60" as="geometry" />
        </mxCell>
        <mxCell id="z0LOa2UjDoidk-_q1wDk-12" value="Б" style="text;html=1;align=center;verticalAlign=middle;resizable=0;points=[];autosize=1;" parent="3Q6sEPr9P0bj2xC8j2HH-1" vertex="1">
          <mxGeometry x="602.25" y="847" width="20" height="20" as="geometry" />
        </mxCell>
        <mxCell id="gOxhsNr-2nOPmDP1YWpE-7" value="" style="verticalLabelPosition=bottom;verticalAlign=top;html=1;shape=mxgraph.flowchart.on-page_reference;strokeWidth=2;" parent="3Q6sEPr9P0bj2xC8j2HH-1" vertex="1">
          <mxGeometry x="360" y="1949" width="60" height="60" as="geometry" />
        </mxCell>
        <mxCell id="gOxhsNr-2nOPmDP1YWpE-10" value="Г" style="text;html=1;align=center;verticalAlign=middle;resizable=0;points=[];autosize=1;" parent="3Q6sEPr9P0bj2xC8j2HH-1" vertex="1">
          <mxGeometry x="377.25" y="1967" width="25" height="26" as="geometry" />
        </mxCell>
        <mxCell id="vH10Ksd_M2F_tMZFcDVh-0" style="edgeStyle=orthogonalEdgeStyle;rounded=0;orthogonalLoop=1;jettySize=auto;html=1;exitX=0.5;exitY=1;exitDx=0;exitDy=0;entryX=0.5;entryY=0;entryDx=0;entryDy=0;" parent="3Q6sEPr9P0bj2xC8j2HH-1" source="vH10Ksd_M2F_tMZFcDVh-2" target="vH10Ksd_M2F_tMZFcDVh-3" edge="1">
          <mxGeometry relative="1" as="geometry" />
        </mxCell>
        <mxCell id="vH10Ksd_M2F_tMZFcDVh-2" value="b / 2 четное" style="rhombus;whiteSpace=wrap;html=1;strokeWidth=2;" parent="3Q6sEPr9P0bj2xC8j2HH-1" vertex="1">
          <mxGeometry x="530.25" y="1486" width="140" height="60" as="geometry" />
        </mxCell>
        <mxCell id="vH10Ksd_M2F_tMZFcDVh-22" value="" style="edgeStyle=orthogonalEdgeStyle;rounded=0;orthogonalLoop=1;jettySize=auto;html=1;" parent="3Q6sEPr9P0bj2xC8j2HH-1" source="vH10Ksd_M2F_tMZFcDVh-3" target="vH10Ksd_M2F_tMZFcDVh-5" edge="1">
          <mxGeometry relative="1" as="geometry" />
        </mxCell>
        <mxCell id="vH10Ksd_M2F_tMZFcDVh-3" value="Цикл i от 0 до a&amp;nbsp;" style="shape=loopLimit;whiteSpace=wrap;html=1;strokeWidth=2;" parent="3Q6sEPr9P0bj2xC8j2HH-1" vertex="1">
          <mxGeometry x="523.75" y="1576" width="152.5" height="50" as="geometry" />
        </mxCell>
        <mxCell id="vH10Ksd_M2F_tMZFcDVh-4" style="edgeStyle=orthogonalEdgeStyle;rounded=0;orthogonalLoop=1;jettySize=auto;html=1;exitX=0.5;exitY=1;exitDx=0;exitDy=0;entryX=0.5;entryY=0;entryDx=0;entryDy=0;endArrow=classic;endFill=1;" parent="3Q6sEPr9P0bj2xC8j2HH-1" source="vH10Ksd_M2F_tMZFcDVh-5" target="vH10Ksd_M2F_tMZFcDVh-6" edge="1">
          <mxGeometry relative="1" as="geometry" />
        </mxCell>
        <mxCell id="vH10Ksd_M2F_tMZFcDVh-5" value="Цикл j от 0 до c&amp;nbsp;" style="shape=loopLimit;whiteSpace=wrap;html=1;strokeWidth=2;" parent="3Q6sEPr9P0bj2xC8j2HH-1" vertex="1">
          <mxGeometry x="524" y="1657" width="152.5" height="50" as="geometry" />
        </mxCell>
        <mxCell id="vH10Ksd_M2F_tMZFcDVh-6" value="&lt;font style=&quot;font-size: 12px;&quot;&gt;C[i][j] = C[i][j] +&lt;br&gt;A[i][b - 1] * B[b - 1][j]&lt;/font&gt;" style="rounded=0;whiteSpace=wrap;html=1;strokeWidth=2;" parent="3Q6sEPr9P0bj2xC8j2HH-1" vertex="1">
          <mxGeometry x="525" y="1738" width="150" height="60" as="geometry" />
        </mxCell>
        <mxCell id="vH10Ksd_M2F_tMZFcDVh-7" value="Конец" style="strokeWidth=2;html=1;shape=mxgraph.flowchart.terminator;whiteSpace=wrap;" parent="3Q6sEPr9P0bj2xC8j2HH-1" vertex="1">
          <mxGeometry x="532.75" y="2009" width="130" height="40" as="geometry" />
        </mxCell>
        <mxCell id="vH10Ksd_M2F_tMZFcDVh-8" value="Да" style="text;html=1;align=center;verticalAlign=middle;resizable=0;points=[];autosize=1;" parent="3Q6sEPr9P0bj2xC8j2HH-1" vertex="1">
          <mxGeometry x="672.5" y="1491" width="30" height="20" as="geometry" />
        </mxCell>
        <mxCell id="vH10Ksd_M2F_tMZFcDVh-9" value="" style="group" parent="3Q6sEPr9P0bj2xC8j2HH-1" vertex="1" connectable="0">
          <mxGeometry x="527.5" y="1831" width="145" height="50" as="geometry" />
        </mxCell>
        <mxCell id="vH10Ksd_M2F_tMZFcDVh-10" value="" style="shape=loopLimit;whiteSpace=wrap;html=1;strokeWidth=2;rotation=-180;" parent="vH10Ksd_M2F_tMZFcDVh-9" vertex="1">
          <mxGeometry width="139.82142857142858" height="50" as="geometry" />
        </mxCell>
        <mxCell id="vH10Ksd_M2F_tMZFcDVh-11" value="&lt;span style=&quot;text-align: center&quot;&gt;Цикл j от 0 до c&lt;/span&gt;" style="text;whiteSpace=wrap;html=1;" parent="vH10Ksd_M2F_tMZFcDVh-9" vertex="1">
          <mxGeometry x="20.714285714285715" y="10" width="124.28571428571429" height="30" as="geometry" />
        </mxCell>
        <mxCell id="vH10Ksd_M2F_tMZFcDVh-12" value="" style="group" parent="3Q6sEPr9P0bj2xC8j2HH-1" vertex="1" connectable="0">
          <mxGeometry x="527.5" y="1897" width="145" height="50" as="geometry" />
        </mxCell>
        <mxCell id="vH10Ksd_M2F_tMZFcDVh-13" value="" style="shape=loopLimit;whiteSpace=wrap;html=1;strokeWidth=2;rotation=-180;" parent="vH10Ksd_M2F_tMZFcDVh-12" vertex="1">
          <mxGeometry y="23" width="139.82142857142858" height="50" as="geometry" />
        </mxCell>
        <mxCell id="vH10Ksd_M2F_tMZFcDVh-14" value="&lt;span style=&quot;text-align: center&quot;&gt;Цикл i от 0 до a&lt;/span&gt;" style="text;whiteSpace=wrap;html=1;" parent="vH10Ksd_M2F_tMZFcDVh-12" vertex="1">
          <mxGeometry x="20.714285714285715" y="33" width="124.28571428571429" height="30" as="geometry" />
        </mxCell>
        <mxCell id="vH10Ksd_M2F_tMZFcDVh-15" style="edgeStyle=orthogonalEdgeStyle;rounded=0;orthogonalLoop=1;jettySize=auto;html=1;exitX=0.5;exitY=0;exitDx=0;exitDy=0;entryX=0.5;entryY=1;entryDx=0;entryDy=0;endArrow=classic;endFill=1;" parent="3Q6sEPr9P0bj2xC8j2HH-1" source="vH10Ksd_M2F_tMZFcDVh-10" target="vH10Ksd_M2F_tMZFcDVh-13" edge="1">
          <mxGeometry relative="1" as="geometry" />
        </mxCell>
        <mxCell id="vH10Ksd_M2F_tMZFcDVh-16" style="edgeStyle=orthogonalEdgeStyle;rounded=0;orthogonalLoop=1;jettySize=auto;html=1;exitX=0.5;exitY=1;exitDx=0;exitDy=0;entryX=0.5;entryY=1;entryDx=0;entryDy=0;" parent="3Q6sEPr9P0bj2xC8j2HH-1" source="vH10Ksd_M2F_tMZFcDVh-6" target="vH10Ksd_M2F_tMZFcDVh-10" edge="1">
          <mxGeometry relative="1" as="geometry">
            <mxPoint x="597.4107142857142" y="1816" as="sourcePoint" />
          </mxGeometry>
        </mxCell>
        <mxCell id="vH10Ksd_M2F_tMZFcDVh-18" style="edgeStyle=orthogonalEdgeStyle;rounded=0;orthogonalLoop=1;jettySize=auto;html=1;exitX=0.5;exitY=1;exitDx=0;exitDy=0;exitPerimeter=0;entryX=0.5;entryY=0;entryDx=0;entryDy=0;" parent="3Q6sEPr9P0bj2xC8j2HH-1" source="vH10Ksd_M2F_tMZFcDVh-20" target="vH10Ksd_M2F_tMZFcDVh-2" edge="1">
          <mxGeometry relative="1" as="geometry" />
        </mxCell>
        <mxCell id="vH10Ksd_M2F_tMZFcDVh-19" value="" style="group" parent="3Q6sEPr9P0bj2xC8j2HH-1" vertex="1" connectable="0">
          <mxGeometry x="567.75" y="1405" width="60" height="60" as="geometry" />
        </mxCell>
        <mxCell id="vH10Ksd_M2F_tMZFcDVh-20" value="" style="verticalLabelPosition=bottom;verticalAlign=top;html=1;shape=mxgraph.flowchart.on-page_reference;strokeWidth=2;" parent="vH10Ksd_M2F_tMZFcDVh-19" vertex="1">
          <mxGeometry width="60" height="60" as="geometry" />
        </mxCell>
        <mxCell id="vH10Ksd_M2F_tMZFcDVh-21" value="Г" style="text;html=1;align=center;verticalAlign=middle;resizable=0;points=[];autosize=1;" parent="vH10Ksd_M2F_tMZFcDVh-19" vertex="1">
          <mxGeometry x="20" y="20" width="20" height="20" as="geometry" />
        </mxCell>
        <mxCell id="vH10Ksd_M2F_tMZFcDVh-23" value="" style="edgeStyle=orthogonalEdgeStyle;rounded=0;orthogonalLoop=1;jettySize=auto;html=1;" parent="3Q6sEPr9P0bj2xC8j2HH-1" source="vH10Ksd_M2F_tMZFcDVh-13" target="vH10Ksd_M2F_tMZFcDVh-7" edge="1">
          <mxGeometry relative="1" as="geometry" />
        </mxCell>
        <mxCell id="vH10Ksd_M2F_tMZFcDVh-24" style="edgeStyle=orthogonalEdgeStyle;rounded=0;orthogonalLoop=1;jettySize=auto;html=1;entryX=0.5;entryY=0;entryDx=0;entryDy=0;entryPerimeter=0;" parent="3Q6sEPr9P0bj2xC8j2HH-1" source="vH10Ksd_M2F_tMZFcDVh-2" target="vH10Ksd_M2F_tMZFcDVh-7" edge="1">
          <mxGeometry relative="1" as="geometry">
            <mxPoint x="750.25" y="1987" as="targetPoint" />
            <Array as="points">
              <mxPoint x="722.25" y="1516" />
              <mxPoint x="722.25" y="1987" />
              <mxPoint x="597.25" y="1987" />
            </Array>
          </mxGeometry>
        </mxCell>
        <mxCell id="XfjBKYWB6bPaXLf-iaAs-0" style="edgeStyle=orthogonalEdgeStyle;rounded=0;orthogonalLoop=1;jettySize=auto;html=1;entryX=0.5;entryY=1;entryDx=0;entryDy=0;" parent="3Q6sEPr9P0bj2xC8j2HH-1" source="z0LOa2UjDoidk-_q1wDk-14" target="z0LOa2UjDoidk-_q1wDk-17" edge="1">
          <mxGeometry relative="1" as="geometry" />
        </mxCell>
        <mxCell id="XfjBKYWB6bPaXLf-iaAs-1" style="edgeStyle=orthogonalEdgeStyle;rounded=0;orthogonalLoop=1;jettySize=auto;html=1;entryX=0.5;entryY=1;entryDx=0;entryDy=0;" parent="3Q6sEPr9P0bj2xC8j2HH-1" source="z0LOa2UjDoidk-_q1wDk-17" target="z0LOa2UjDoidk-_q1wDk-21" edge="1">
          <mxGeometry relative="1" as="geometry" />
        </mxCell>
        <mxCell id="pHrV5vuFMvYmXQ6hxdZX-7" style="edgeStyle=orthogonalEdgeStyle;rounded=0;orthogonalLoop=1;jettySize=auto;html=1;entryX=0.5;entryY=0;entryDx=0;entryDy=0;" edge="1" parent="3Q6sEPr9P0bj2xC8j2HH-1" source="pHrV5vuFMvYmXQ6hxdZX-0" target="pHrV5vuFMvYmXQ6hxdZX-1">
          <mxGeometry relative="1" as="geometry" />
        </mxCell>
        <mxCell id="pHrV5vuFMvYmXQ6hxdZX-0" value="&lt;span&gt;b = кол-во столбцов А&lt;/span&gt;" style="rounded=0;whiteSpace=wrap;html=1;strokeWidth=2;" vertex="1" parent="3Q6sEPr9P0bj2xC8j2HH-1">
          <mxGeometry x="276" y="469" width="150" height="44" as="geometry" />
        </mxCell>
        <mxCell id="pHrV5vuFMvYmXQ6hxdZX-8" style="edgeStyle=orthogonalEdgeStyle;rounded=0;orthogonalLoop=1;jettySize=auto;html=1;entryX=0.5;entryY=0;entryDx=0;entryDy=0;" edge="1" parent="3Q6sEPr9P0bj2xC8j2HH-1" source="pHrV5vuFMvYmXQ6hxdZX-1" target="pHrV5vuFMvYmXQ6hxdZX-3">
          <mxGeometry relative="1" as="geometry" />
        </mxCell>
        <mxCell id="pHrV5vuFMvYmXQ6hxdZX-1" value="&lt;span&gt;c = кол-во столбцов B&lt;/span&gt;" style="rounded=0;whiteSpace=wrap;html=1;strokeWidth=2;" vertex="1" parent="3Q6sEPr9P0bj2xC8j2HH-1">
          <mxGeometry x="276" y="543" width="150" height="42" as="geometry" />
        </mxCell>
        <mxCell id="pHrV5vuFMvYmXQ6hxdZX-9" style="edgeStyle=orthogonalEdgeStyle;rounded=0;orthogonalLoop=1;jettySize=auto;html=1;entryX=0.5;entryY=0;entryDx=0;entryDy=0;" edge="1" parent="3Q6sEPr9P0bj2xC8j2HH-1" source="pHrV5vuFMvYmXQ6hxdZX-3" target="zIN2iYkm2CnEy74Q9T-E-4">
          <mxGeometry relative="1" as="geometry" />
        </mxCell>
        <mxCell id="pHrV5vuFMvYmXQ6hxdZX-3" value="Создание массива colFactor длиной c" style="rounded=0;whiteSpace=wrap;html=1;strokeWidth=2;" vertex="1" parent="3Q6sEPr9P0bj2xC8j2HH-1">
          <mxGeometry x="276" y="612" width="150" height="60" as="geometry" />
        </mxCell>
      </root>
    </mxGraphModel>
  </diagram>
  <diagram id="P3IxCemla7PNCQgI5bjP" name="опт_виноград">
    <mxGraphModel dx="700" dy="389" grid="0" gridSize="10" guides="1" tooltips="1" connect="1" arrows="1" fold="1" page="1" pageScale="1" pageWidth="827" pageHeight="1169" math="0" shadow="0">
      <root>
        <mxCell id="v0z-nIhu8Ox-OZCHZsVR-0" />
        <mxCell id="v0z-nIhu8Ox-OZCHZsVR-1" parent="v0z-nIhu8Ox-OZCHZsVR-0" />
        <mxCell id="pYnH36NcbViO8IZhxfSu-9" style="edgeStyle=orthogonalEdgeStyle;rounded=0;orthogonalLoop=1;jettySize=auto;html=1;entryX=0.5;entryY=0;entryDx=0;entryDy=0;" edge="1" parent="v0z-nIhu8Ox-OZCHZsVR-1" source="v0z-nIhu8Ox-OZCHZsVR-3" target="pYnH36NcbViO8IZhxfSu-1">
          <mxGeometry relative="1" as="geometry" />
        </mxCell>
        <mxCell id="v0z-nIhu8Ox-OZCHZsVR-3" value="Начало" style="strokeWidth=2;html=1;shape=mxgraph.flowchart.terminator;whiteSpace=wrap;" parent="v0z-nIhu8Ox-OZCHZsVR-1" vertex="1">
          <mxGeometry x="291" y="334" width="110" height="50" as="geometry" />
        </mxCell>
        <mxCell id="v0z-nIhu8Ox-OZCHZsVR-4" style="edgeStyle=orthogonalEdgeStyle;rounded=0;orthogonalLoop=1;jettySize=auto;html=1;exitX=0;exitY=0.5;exitDx=0;exitDy=0;exitPerimeter=0;dashed=1;endArrow=none;endFill=0;" parent="v0z-nIhu8Ox-OZCHZsVR-1" target="v0z-nIhu8Ox-OZCHZsVR-5" edge="1">
          <mxGeometry relative="1" as="geometry">
            <mxPoint x="291" y="359" as="sourcePoint" />
          </mxGeometry>
        </mxCell>
        <mxCell id="v0z-nIhu8Ox-OZCHZsVR-5" value="&lt;div style=&quot;text-align: right&quot;&gt;&lt;br&gt;&lt;/div&gt;" style="strokeWidth=2;html=1;shape=mxgraph.flowchart.annotation_1;align=left;pointerEvents=1;rotation=-180;" parent="v0z-nIhu8Ox-OZCHZsVR-1" vertex="1">
          <mxGeometry x="216" y="314" width="50" height="90" as="geometry" />
        </mxCell>
        <mxCell id="v0z-nIhu8Ox-OZCHZsVR-6" value="&lt;div style=&quot;color: rgb(0 , 0 , 0) ; font-family: &amp;#34;helvetica&amp;#34; ; font-size: 12px ; font-style: normal ; font-weight: 400 ; letter-spacing: normal ; text-indent: 0px ; text-transform: none ; word-spacing: 0px ; text-align: right&quot;&gt;Оптимизированный алгоритм&amp;nbsp;&lt;span&gt;&amp;nbsp;&lt;/span&gt;&lt;/div&gt;&lt;div style=&quot;color: rgb(0 , 0 , 0) ; font-family: &amp;#34;helvetica&amp;#34; ; font-size: 12px ; font-style: normal ; font-weight: 400 ; letter-spacing: normal ; text-indent: 0px ; text-transform: none ; word-spacing: 0px ; text-align: right&quot;&gt;умножения&lt;/div&gt;&lt;div style=&quot;color: rgb(0 , 0 , 0) ; font-family: &amp;#34;helvetica&amp;#34; ; font-size: 12px ; font-style: normal ; font-weight: 400 ; letter-spacing: normal ; text-indent: 0px ; text-transform: none ; word-spacing: 0px ; text-align: right&quot;&gt;по Винограду&lt;/div&gt;&lt;div style=&quot;color: rgb(0 , 0 , 0) ; font-family: &amp;#34;helvetica&amp;#34; ; font-size: 12px ; font-style: normal ; font-weight: 400 ; letter-spacing: normal ; text-indent: 0px ; text-transform: none ; word-spacing: 0px ; text-align: right&quot;&gt;Вход: матрицы А и В&lt;/div&gt;&lt;div style=&quot;color: rgb(0 , 0 , 0) ; font-family: &amp;#34;helvetica&amp;#34; ; font-size: 12px ; font-style: normal ; font-weight: 400 ; letter-spacing: normal ; text-indent: 0px ; text-transform: none ; word-spacing: 0px ; text-align: right&quot;&gt;Выход: матрица С&lt;/div&gt;" style="text;whiteSpace=wrap;html=1;" parent="v0z-nIhu8Ox-OZCHZsVR-1" vertex="1">
          <mxGeometry x="141" y="309" width="120" height="60" as="geometry" />
        </mxCell>
        <mxCell id="v0z-nIhu8Ox-OZCHZsVR-11" style="edgeStyle=orthogonalEdgeStyle;rounded=0;orthogonalLoop=1;jettySize=auto;html=1;exitX=0.5;exitY=1;exitDx=0;exitDy=0;entryX=0.5;entryY=0;entryDx=0;entryDy=0;endArrow=classic;endFill=1;" parent="v0z-nIhu8Ox-OZCHZsVR-1" source="v0z-nIhu8Ox-OZCHZsVR-12" target="v0z-nIhu8Ox-OZCHZsVR-14" edge="1">
          <mxGeometry relative="1" as="geometry" />
        </mxCell>
        <mxCell id="v0z-nIhu8Ox-OZCHZsVR-12" value="Цикл i от 0 до a&amp;nbsp;" style="shape=loopLimit;whiteSpace=wrap;html=1;strokeWidth=2;" parent="v0z-nIhu8Ox-OZCHZsVR-1" vertex="1">
          <mxGeometry x="269.75" y="805" width="152.5" height="50" as="geometry" />
        </mxCell>
        <mxCell id="v0z-nIhu8Ox-OZCHZsVR-13" style="edgeStyle=orthogonalEdgeStyle;rounded=0;orthogonalLoop=1;jettySize=auto;html=1;exitX=0.5;exitY=1;exitDx=0;exitDy=0;entryX=0.5;entryY=0;entryDx=0;entryDy=0;endArrow=classic;endFill=1;" parent="v0z-nIhu8Ox-OZCHZsVR-1" edge="1">
          <mxGeometry relative="1" as="geometry">
            <mxPoint x="345.36" y="925" as="sourcePoint" />
            <mxPoint x="346.61" y="955" as="targetPoint" />
          </mxGeometry>
        </mxCell>
        <mxCell id="v0z-nIhu8Ox-OZCHZsVR-14" value="Цикл j от 0 до b / 2&amp;nbsp;" style="shape=loopLimit;whiteSpace=wrap;html=1;strokeWidth=2;" parent="v0z-nIhu8Ox-OZCHZsVR-1" vertex="1">
          <mxGeometry x="269.75" y="875" width="152.5" height="50" as="geometry" />
        </mxCell>
        <mxCell id="v0z-nIhu8Ox-OZCHZsVR-15" style="edgeStyle=orthogonalEdgeStyle;rounded=0;orthogonalLoop=1;jettySize=auto;html=1;exitX=0.5;exitY=1;exitDx=0;exitDy=0;entryX=0.5;entryY=0;entryDx=0;entryDy=0;entryPerimeter=0;endArrow=classic;endFill=1;" parent="v0z-nIhu8Ox-OZCHZsVR-1" source="v0z-nIhu8Ox-OZCHZsVR-16" target="v0z-nIhu8Ox-OZCHZsVR-18" edge="1">
          <mxGeometry relative="1" as="geometry" />
        </mxCell>
        <mxCell id="v0z-nIhu8Ox-OZCHZsVR-16" value="&lt;font style=&quot;font-size: 12px;&quot;&gt;&lt;font style=&quot;border-color: var(--border-color);&quot;&gt;rowFactor[i]&lt;/font&gt;&lt;font style=&quot;border-color: var(--border-color);&quot;&gt;&amp;nbsp;+=&lt;br style=&quot;border-color: var(--border-color);&quot;&gt;A[i][ j &amp;lt;&amp;lt; 1] + A[i][2 &amp;lt;&amp;lt; j + 1]&lt;/font&gt;&lt;/font&gt;" style="rounded=0;whiteSpace=wrap;html=1;strokeWidth=2;" parent="v0z-nIhu8Ox-OZCHZsVR-1" vertex="1">
          <mxGeometry x="272.25" y="955" width="150" height="60" as="geometry" />
        </mxCell>
        <mxCell id="v0z-nIhu8Ox-OZCHZsVR-17" value="" style="group" parent="v0z-nIhu8Ox-OZCHZsVR-1" vertex="1" connectable="0">
          <mxGeometry x="321" y="1035" width="60" height="60" as="geometry" />
        </mxCell>
        <mxCell id="v0z-nIhu8Ox-OZCHZsVR-18" value="" style="verticalLabelPosition=bottom;verticalAlign=top;html=1;shape=mxgraph.flowchart.on-page_reference;strokeWidth=2;" parent="v0z-nIhu8Ox-OZCHZsVR-17" vertex="1">
          <mxGeometry x="-3.75" y="20" width="60" height="60" as="geometry" />
        </mxCell>
        <mxCell id="v0z-nIhu8Ox-OZCHZsVR-19" value="A" style="text;html=1;align=center;verticalAlign=middle;resizable=0;points=[];autosize=1;" parent="v0z-nIhu8Ox-OZCHZsVR-17" vertex="1">
          <mxGeometry x="16.25" y="37" width="20" height="20" as="geometry" />
        </mxCell>
        <mxCell id="v0z-nIhu8Ox-OZCHZsVR-20" value="" style="group" parent="v0z-nIhu8Ox-OZCHZsVR-1" vertex="1" connectable="0">
          <mxGeometry x="576" y="334" width="60" height="60" as="geometry" />
        </mxCell>
        <mxCell id="v0z-nIhu8Ox-OZCHZsVR-21" value="" style="verticalLabelPosition=bottom;verticalAlign=top;html=1;shape=mxgraph.flowchart.on-page_reference;strokeWidth=2;" parent="v0z-nIhu8Ox-OZCHZsVR-20" vertex="1">
          <mxGeometry x="-1.43" width="60" height="60" as="geometry" />
        </mxCell>
        <mxCell id="v0z-nIhu8Ox-OZCHZsVR-22" value="A" style="text;html=1;align=center;verticalAlign=middle;resizable=0;points=[];autosize=1;" parent="v0z-nIhu8Ox-OZCHZsVR-20" vertex="1">
          <mxGeometry x="20" y="20" width="20" height="20" as="geometry" />
        </mxCell>
        <mxCell id="v0z-nIhu8Ox-OZCHZsVR-23" value="" style="group" parent="v0z-nIhu8Ox-OZCHZsVR-1" vertex="1" connectable="0">
          <mxGeometry x="535.2" y="515" width="145" height="50" as="geometry" />
        </mxCell>
        <mxCell id="v0z-nIhu8Ox-OZCHZsVR-24" value="" style="shape=loopLimit;whiteSpace=wrap;html=1;strokeWidth=2;rotation=-180;" parent="v0z-nIhu8Ox-OZCHZsVR-23" vertex="1">
          <mxGeometry x="1.21" width="139.82142857142858" height="50" as="geometry" />
        </mxCell>
        <mxCell id="v0z-nIhu8Ox-OZCHZsVR-25" value="&lt;span style=&quot;text-align: center&quot;&gt;Цикл i от 0 до a&amp;nbsp;&lt;/span&gt;" style="text;whiteSpace=wrap;html=1;" parent="v0z-nIhu8Ox-OZCHZsVR-23" vertex="1">
          <mxGeometry x="20.714285714285715" y="10" width="124.28571428571429" height="30" as="geometry" />
        </mxCell>
        <mxCell id="v0z-nIhu8Ox-OZCHZsVR-26" style="edgeStyle=orthogonalEdgeStyle;rounded=0;orthogonalLoop=1;jettySize=auto;html=1;exitX=0.5;exitY=1;exitDx=0;exitDy=0;entryX=0.5;entryY=0;entryDx=0;entryDy=0;endArrow=classic;endFill=1;" parent="v0z-nIhu8Ox-OZCHZsVR-1" source="v0z-nIhu8Ox-OZCHZsVR-27" target="v0z-nIhu8Ox-OZCHZsVR-29" edge="1">
          <mxGeometry relative="1" as="geometry" />
        </mxCell>
        <mxCell id="v0z-nIhu8Ox-OZCHZsVR-27" value="Цикл i от 0 до c" style="shape=loopLimit;whiteSpace=wrap;html=1;strokeWidth=2;" parent="v0z-nIhu8Ox-OZCHZsVR-1" vertex="1">
          <mxGeometry x="529.45" y="602" width="152.5" height="50" as="geometry" />
        </mxCell>
        <mxCell id="cRv4ARwdXAgRNxiOtPx2-4" style="edgeStyle=orthogonalEdgeStyle;rounded=0;orthogonalLoop=1;jettySize=auto;html=1;entryX=0.5;entryY=0;entryDx=0;entryDy=0;" parent="v0z-nIhu8Ox-OZCHZsVR-1" source="v0z-nIhu8Ox-OZCHZsVR-29" target="v0z-nIhu8Ox-OZCHZsVR-31" edge="1">
          <mxGeometry relative="1" as="geometry" />
        </mxCell>
        <mxCell id="v0z-nIhu8Ox-OZCHZsVR-29" value="Цикл j от 0 до b / 2" style="shape=loopLimit;whiteSpace=wrap;html=1;strokeWidth=2;" parent="v0z-nIhu8Ox-OZCHZsVR-1" vertex="1">
          <mxGeometry x="530.7" y="680" width="152.5" height="50" as="geometry" />
        </mxCell>
        <mxCell id="v0z-nIhu8Ox-OZCHZsVR-30" style="edgeStyle=orthogonalEdgeStyle;rounded=0;orthogonalLoop=1;jettySize=auto;html=1;exitX=0.5;exitY=1;exitDx=0;exitDy=0;entryX=0.5;entryY=0;entryDx=0;entryDy=0;entryPerimeter=0;endArrow=classic;endFill=1;" parent="v0z-nIhu8Ox-OZCHZsVR-1" source="v0z-nIhu8Ox-OZCHZsVR-31" target="v0z-nIhu8Ox-OZCHZsVR-33" edge="1">
          <mxGeometry relative="1" as="geometry" />
        </mxCell>
        <mxCell id="v0z-nIhu8Ox-OZCHZsVR-31" value="&lt;font style=&quot;font-size: 12px;&quot;&gt;&lt;font style=&quot;border-color: var(--border-color);&quot;&gt;colFactor[i]&lt;/font&gt;&lt;font style=&quot;border-color: var(--border-color);&quot;&gt;&amp;nbsp; +=&amp;nbsp;&lt;br style=&quot;border-color: var(--border-color);&quot;&gt;B[j &amp;lt;&amp;lt; 1][i] + B[j &amp;lt;&amp;lt; 1 + 1][i]&lt;/font&gt;&lt;/font&gt;" style="rounded=0;whiteSpace=wrap;html=1;strokeWidth=2;" parent="v0z-nIhu8Ox-OZCHZsVR-1" vertex="1">
          <mxGeometry x="531.95" y="761" width="150" height="60" as="geometry" />
        </mxCell>
        <mxCell id="v0z-nIhu8Ox-OZCHZsVR-32" value="" style="group" parent="v0z-nIhu8Ox-OZCHZsVR-1" vertex="1" connectable="0">
          <mxGeometry x="579.75" y="831" width="60" height="60" as="geometry" />
        </mxCell>
        <mxCell id="v0z-nIhu8Ox-OZCHZsVR-33" value="" style="verticalLabelPosition=bottom;verticalAlign=top;html=1;shape=mxgraph.flowchart.on-page_reference;strokeWidth=2;" parent="v0z-nIhu8Ox-OZCHZsVR-32" vertex="1">
          <mxGeometry x="-2.8" y="16" width="60" height="60" as="geometry" />
        </mxCell>
        <mxCell id="v0z-nIhu8Ox-OZCHZsVR-34" value="Б" style="text;html=1;align=center;verticalAlign=middle;resizable=0;points=[];autosize=1;" parent="v0z-nIhu8Ox-OZCHZsVR-32" vertex="1">
          <mxGeometry x="17.2" y="36" width="20" height="20" as="geometry" />
        </mxCell>
        <mxCell id="v0z-nIhu8Ox-OZCHZsVR-35" value="" style="group" parent="v0z-nIhu8Ox-OZCHZsVR-1" vertex="1" connectable="0">
          <mxGeometry x="152.75" y="1454" width="60" height="60" as="geometry" />
        </mxCell>
        <mxCell id="v0z-nIhu8Ox-OZCHZsVR-36" value="" style="verticalLabelPosition=bottom;verticalAlign=top;html=1;shape=mxgraph.flowchart.on-page_reference;strokeWidth=2;" parent="v0z-nIhu8Ox-OZCHZsVR-35" vertex="1">
          <mxGeometry width="60" height="60" as="geometry" />
        </mxCell>
        <mxCell id="v0z-nIhu8Ox-OZCHZsVR-37" value="Б" style="text;html=1;align=center;verticalAlign=middle;resizable=0;points=[];autosize=1;" parent="v0z-nIhu8Ox-OZCHZsVR-35" vertex="1">
          <mxGeometry x="20" y="20" width="20" height="20" as="geometry" />
        </mxCell>
        <mxCell id="v0z-nIhu8Ox-OZCHZsVR-38" value="" style="group" parent="v0z-nIhu8Ox-OZCHZsVR-1" vertex="1" connectable="0">
          <mxGeometry x="112.75" y="1544" width="145" height="50" as="geometry" />
        </mxCell>
        <mxCell id="v0z-nIhu8Ox-OZCHZsVR-39" value="" style="shape=loopLimit;whiteSpace=wrap;html=1;strokeWidth=2;rotation=-180;" parent="v0z-nIhu8Ox-OZCHZsVR-38" vertex="1">
          <mxGeometry width="139.82142857142858" height="50" as="geometry" />
        </mxCell>
        <mxCell id="v0z-nIhu8Ox-OZCHZsVR-40" value="&lt;span&gt;Цикл j от 0 до b / 2&lt;/span&gt;&lt;span&gt;&amp;nbsp;&lt;/span&gt;" style="text;whiteSpace=wrap;html=1;align=center;" parent="v0z-nIhu8Ox-OZCHZsVR-38" vertex="1">
          <mxGeometry x="-10" y="10" width="155" height="30" as="geometry" />
        </mxCell>
        <mxCell id="v0z-nIhu8Ox-OZCHZsVR-41" value="" style="group" parent="v0z-nIhu8Ox-OZCHZsVR-1" vertex="1" connectable="0">
          <mxGeometry x="112.75" y="1614" width="145" height="50" as="geometry" />
        </mxCell>
        <mxCell id="v0z-nIhu8Ox-OZCHZsVR-42" value="" style="shape=loopLimit;whiteSpace=wrap;html=1;strokeWidth=2;rotation=-180;" parent="v0z-nIhu8Ox-OZCHZsVR-41" vertex="1">
          <mxGeometry width="139.82142857142858" height="50" as="geometry" />
        </mxCell>
        <mxCell id="v0z-nIhu8Ox-OZCHZsVR-43" value="&lt;span style=&quot;text-align: center&quot;&gt;Цикл i от 0 до c&lt;/span&gt;" style="text;whiteSpace=wrap;html=1;" parent="v0z-nIhu8Ox-OZCHZsVR-41" vertex="1">
          <mxGeometry x="20.714285714285715" y="10" width="124.28571428571429" height="30" as="geometry" />
        </mxCell>
        <mxCell id="v0z-nIhu8Ox-OZCHZsVR-45" value="Цикл i от 0 до a" style="shape=loopLimit;whiteSpace=wrap;html=1;strokeWidth=2;" parent="v0z-nIhu8Ox-OZCHZsVR-1" vertex="1">
          <mxGeometry x="106.5" y="1687" width="152.5" height="50" as="geometry" />
        </mxCell>
        <mxCell id="v0z-nIhu8Ox-OZCHZsVR-46" style="edgeStyle=orthogonalEdgeStyle;rounded=0;orthogonalLoop=1;jettySize=auto;html=1;exitX=0.5;exitY=1;exitDx=0;exitDy=0;entryX=0.5;entryY=0;entryDx=0;entryDy=0;endArrow=classic;endFill=1;" parent="v0z-nIhu8Ox-OZCHZsVR-1" source="v0z-nIhu8Ox-OZCHZsVR-47" target="v0z-nIhu8Ox-OZCHZsVR-49" edge="1">
          <mxGeometry relative="1" as="geometry" />
        </mxCell>
        <mxCell id="v0z-nIhu8Ox-OZCHZsVR-47" value="Цикл j от 0 до c" style="shape=loopLimit;whiteSpace=wrap;html=1;strokeWidth=2;" parent="v0z-nIhu8Ox-OZCHZsVR-1" vertex="1">
          <mxGeometry x="105.88" y="1766" width="152.5" height="50" as="geometry" />
        </mxCell>
        <mxCell id="v0z-nIhu8Ox-OZCHZsVR-48" style="edgeStyle=orthogonalEdgeStyle;rounded=0;orthogonalLoop=1;jettySize=auto;html=1;exitX=0.5;exitY=1;exitDx=0;exitDy=0;entryX=0.5;entryY=0;entryDx=0;entryDy=0;entryPerimeter=0;endArrow=classic;endFill=1;" parent="v0z-nIhu8Ox-OZCHZsVR-1" source="v0z-nIhu8Ox-OZCHZsVR-49" target="v0z-nIhu8Ox-OZCHZsVR-51" edge="1">
          <mxGeometry relative="1" as="geometry" />
        </mxCell>
        <mxCell id="v0z-nIhu8Ox-OZCHZsVR-49" value="C[i][j] -=&lt;br style=&quot;border-color: var(--border-color);&quot;&gt;(rowFactorA[i] + colFactor[j])" style="rounded=0;whiteSpace=wrap;html=1;strokeWidth=2;" parent="v0z-nIhu8Ox-OZCHZsVR-1" vertex="1">
          <mxGeometry x="109.63" y="1846" width="150" height="60" as="geometry" />
        </mxCell>
        <mxCell id="v0z-nIhu8Ox-OZCHZsVR-50" value="" style="group" parent="v0z-nIhu8Ox-OZCHZsVR-1" vertex="1" connectable="0">
          <mxGeometry x="154.63" y="1926" width="60" height="60" as="geometry" />
        </mxCell>
        <mxCell id="v0z-nIhu8Ox-OZCHZsVR-51" value="" style="verticalLabelPosition=bottom;verticalAlign=top;html=1;shape=mxgraph.flowchart.on-page_reference;strokeWidth=2;" parent="v0z-nIhu8Ox-OZCHZsVR-50" vertex="1">
          <mxGeometry y="10" width="60" height="60" as="geometry" />
        </mxCell>
        <mxCell id="v0z-nIhu8Ox-OZCHZsVR-52" value="В" style="text;html=1;align=center;verticalAlign=middle;resizable=0;points=[];autosize=1;" parent="v0z-nIhu8Ox-OZCHZsVR-50" vertex="1">
          <mxGeometry x="20" y="30" width="20" height="20" as="geometry" />
        </mxCell>
        <mxCell id="v0z-nIhu8Ox-OZCHZsVR-53" value="" style="group" parent="v0z-nIhu8Ox-OZCHZsVR-1" vertex="1" connectable="0">
          <mxGeometry x="352.75" y="1454" width="60" height="60" as="geometry" />
        </mxCell>
        <mxCell id="v0z-nIhu8Ox-OZCHZsVR-54" value="" style="verticalLabelPosition=bottom;verticalAlign=top;html=1;shape=mxgraph.flowchart.on-page_reference;strokeWidth=2;" parent="v0z-nIhu8Ox-OZCHZsVR-53" vertex="1">
          <mxGeometry width="60" height="60" as="geometry" />
        </mxCell>
        <mxCell id="v0z-nIhu8Ox-OZCHZsVR-55" value="В" style="text;html=1;align=center;verticalAlign=middle;resizable=0;points=[];autosize=1;" parent="v0z-nIhu8Ox-OZCHZsVR-53" vertex="1">
          <mxGeometry x="20" y="20" width="20" height="20" as="geometry" />
        </mxCell>
        <mxCell id="v0z-nIhu8Ox-OZCHZsVR-56" style="edgeStyle=orthogonalEdgeStyle;rounded=0;orthogonalLoop=1;jettySize=auto;html=1;exitX=0.5;exitY=1;exitDx=0;exitDy=0;entryX=0.5;entryY=0;entryDx=0;entryDy=0;endArrow=classic;endFill=1;" parent="v0z-nIhu8Ox-OZCHZsVR-1" source="v0z-nIhu8Ox-OZCHZsVR-57" target="v0z-nIhu8Ox-OZCHZsVR-59" edge="1">
          <mxGeometry relative="1" as="geometry" />
        </mxCell>
        <mxCell id="v0z-nIhu8Ox-OZCHZsVR-57" value="Цикл k от 0 до b / 2" style="shape=loopLimit;whiteSpace=wrap;html=1;strokeWidth=2;" parent="v0z-nIhu8Ox-OZCHZsVR-1" vertex="1">
          <mxGeometry x="308.75" y="1544" width="152.5" height="50" as="geometry" />
        </mxCell>
        <mxCell id="v0z-nIhu8Ox-OZCHZsVR-58" style="edgeStyle=orthogonalEdgeStyle;rounded=0;orthogonalLoop=1;jettySize=auto;html=1;exitX=0.5;exitY=1;exitDx=0;exitDy=0;entryX=0.5;entryY=1;entryDx=0;entryDy=0;endArrow=classic;endFill=1;" parent="v0z-nIhu8Ox-OZCHZsVR-1" source="v0z-nIhu8Ox-OZCHZsVR-59" target="v0z-nIhu8Ox-OZCHZsVR-61" edge="1">
          <mxGeometry relative="1" as="geometry" />
        </mxCell>
        <mxCell id="v0z-nIhu8Ox-OZCHZsVR-59" value="&lt;font style=&quot;font-size: 12px;&quot;&gt;C[i][j] += &lt;br&gt;(A[i][k &amp;lt;&amp;lt; 1] + B[k &amp;lt;&amp;lt; 1 + 1][j]) *&lt;br&gt;(A[i][k &amp;lt;&amp;lt; 1 + 1] + B[k &amp;lt;&amp;lt; 1][j)&lt;/font&gt;" style="rounded=0;whiteSpace=wrap;html=1;strokeWidth=2;" parent="v0z-nIhu8Ox-OZCHZsVR-1" vertex="1">
          <mxGeometry x="302.2" y="1625" width="166.5" height="77" as="geometry" />
        </mxCell>
        <mxCell id="v0z-nIhu8Ox-OZCHZsVR-60" value="" style="group" parent="v0z-nIhu8Ox-OZCHZsVR-1" vertex="1" connectable="0">
          <mxGeometry x="317.75" y="1733" width="145" height="50" as="geometry" />
        </mxCell>
        <mxCell id="v0z-nIhu8Ox-OZCHZsVR-61" value="" style="shape=loopLimit;whiteSpace=wrap;html=1;strokeWidth=2;rotation=-180;" parent="v0z-nIhu8Ox-OZCHZsVR-60" vertex="1">
          <mxGeometry width="139.82142857142858" height="50" as="geometry" />
        </mxCell>
        <mxCell id="v0z-nIhu8Ox-OZCHZsVR-62" value="&lt;span style=&quot;text-align: center&quot;&gt;Цикл k от 0 до b / 2&amp;nbsp;&lt;/span&gt;&lt;br style=&quot;text-align: center&quot;&gt;&lt;div style=&quot;text-align: center&quot;&gt;&lt;br&gt;&lt;/div&gt;" style="text;whiteSpace=wrap;html=1;" parent="v0z-nIhu8Ox-OZCHZsVR-60" vertex="1">
          <mxGeometry x="20.714285714285715" y="10" width="124.28571428571429" height="30" as="geometry" />
        </mxCell>
        <mxCell id="v0z-nIhu8Ox-OZCHZsVR-63" style="edgeStyle=orthogonalEdgeStyle;rounded=0;orthogonalLoop=1;jettySize=auto;html=1;exitX=0.5;exitY=1;exitDx=0;exitDy=0;entryX=0.5;entryY=0;entryDx=0;entryDy=0;" parent="v0z-nIhu8Ox-OZCHZsVR-1" source="v0z-nIhu8Ox-OZCHZsVR-65" target="v0z-nIhu8Ox-OZCHZsVR-72" edge="1">
          <mxGeometry relative="1" as="geometry" />
        </mxCell>
        <mxCell id="-mZZ8aX7LrNO84SMHjek-8" style="edgeStyle=orthogonalEdgeStyle;rounded=0;orthogonalLoop=1;jettySize=auto;html=1;exitX=1;exitY=0.5;exitDx=0;exitDy=0;entryX=0.5;entryY=0;entryDx=0;entryDy=0;entryPerimeter=0;" parent="v0z-nIhu8Ox-OZCHZsVR-1" target="v0z-nIhu8Ox-OZCHZsVR-82" edge="1">
          <mxGeometry relative="1" as="geometry">
            <mxPoint x="571.7499999999999" y="2008" as="targetPoint" />
            <mxPoint x="639.84" y="1570" as="sourcePoint" />
            <Array as="points">
              <mxPoint x="722.75" y="1570" />
              <mxPoint x="722.75" y="1991" />
              <mxPoint x="598.75" y="1991" />
              <mxPoint x="598.75" y="2008" />
              <mxPoint x="598.75" y="2008" />
            </Array>
          </mxGeometry>
        </mxCell>
        <mxCell id="v0z-nIhu8Ox-OZCHZsVR-65" value="b / 2 чётное" style="rhombus;whiteSpace=wrap;html=1;strokeWidth=2;" parent="v0z-nIhu8Ox-OZCHZsVR-1" vertex="1">
          <mxGeometry x="526.75" y="1539" width="140" height="60" as="geometry" />
        </mxCell>
        <mxCell id="v0z-nIhu8Ox-OZCHZsVR-66" value="" style="group" parent="v0z-nIhu8Ox-OZCHZsVR-1" vertex="1" connectable="0">
          <mxGeometry x="357.66" y="1968" width="60" height="60" as="geometry" />
        </mxCell>
        <mxCell id="v0z-nIhu8Ox-OZCHZsVR-67" value="" style="verticalLabelPosition=bottom;verticalAlign=top;html=1;shape=mxgraph.flowchart.on-page_reference;strokeWidth=2;" parent="v0z-nIhu8Ox-OZCHZsVR-66" vertex="1">
          <mxGeometry width="60" height="60" as="geometry" />
        </mxCell>
        <mxCell id="v0z-nIhu8Ox-OZCHZsVR-68" value="Г" style="text;html=1;align=center;verticalAlign=middle;resizable=0;points=[];autosize=1;" parent="v0z-nIhu8Ox-OZCHZsVR-66" vertex="1">
          <mxGeometry x="20" y="20" width="20" height="20" as="geometry" />
        </mxCell>
        <mxCell id="-mZZ8aX7LrNO84SMHjek-2" style="edgeStyle=orthogonalEdgeStyle;rounded=0;orthogonalLoop=1;jettySize=auto;html=1;" parent="v0z-nIhu8Ox-OZCHZsVR-1" source="v0z-nIhu8Ox-OZCHZsVR-72" target="v0z-nIhu8Ox-OZCHZsVR-74" edge="1">
          <mxGeometry relative="1" as="geometry" />
        </mxCell>
        <mxCell id="v0z-nIhu8Ox-OZCHZsVR-72" value="Цикл i от 0 до a&amp;nbsp;" style="shape=loopLimit;whiteSpace=wrap;html=1;strokeWidth=2;" parent="v0z-nIhu8Ox-OZCHZsVR-1" vertex="1">
          <mxGeometry x="521.75" y="1617" width="152.5" height="50" as="geometry" />
        </mxCell>
        <mxCell id="v0z-nIhu8Ox-OZCHZsVR-73" style="edgeStyle=orthogonalEdgeStyle;rounded=0;orthogonalLoop=1;jettySize=auto;html=1;exitX=0.5;exitY=1;exitDx=0;exitDy=0;entryX=0.5;entryY=0;entryDx=0;entryDy=0;endArrow=classic;endFill=1;" parent="v0z-nIhu8Ox-OZCHZsVR-1" source="v0z-nIhu8Ox-OZCHZsVR-74" target="v0z-nIhu8Ox-OZCHZsVR-75" edge="1">
          <mxGeometry relative="1" as="geometry" />
        </mxCell>
        <mxCell id="v0z-nIhu8Ox-OZCHZsVR-74" value="Цикл j от 0 до c&amp;nbsp;" style="shape=loopLimit;whiteSpace=wrap;html=1;strokeWidth=2;" parent="v0z-nIhu8Ox-OZCHZsVR-1" vertex="1">
          <mxGeometry x="521.75" y="1695" width="152.5" height="50" as="geometry" />
        </mxCell>
        <mxCell id="v0z-nIhu8Ox-OZCHZsVR-75" value="&lt;font style=&quot;font-size: 12px;&quot;&gt;C[i][j] +=&lt;br&gt;A[i][b - 1] * B[b - 1][j]&lt;/font&gt;" style="rounded=0;whiteSpace=wrap;html=1;strokeWidth=2;" parent="v0z-nIhu8Ox-OZCHZsVR-1" vertex="1">
          <mxGeometry x="524.25" y="1763" width="150" height="60" as="geometry" />
        </mxCell>
        <mxCell id="v0z-nIhu8Ox-OZCHZsVR-76" value="" style="group" parent="v0z-nIhu8Ox-OZCHZsVR-1" vertex="1" connectable="0">
          <mxGeometry x="317.75" y="1813" width="145" height="50" as="geometry" />
        </mxCell>
        <mxCell id="v0z-nIhu8Ox-OZCHZsVR-77" value="" style="shape=loopLimit;whiteSpace=wrap;html=1;strokeWidth=2;rotation=-180;" parent="v0z-nIhu8Ox-OZCHZsVR-76" vertex="1">
          <mxGeometry width="139.82142857142858" height="50" as="geometry" />
        </mxCell>
        <mxCell id="v0z-nIhu8Ox-OZCHZsVR-78" value="&lt;span style=&quot;text-align: center&quot;&gt;Цикл j от 0 до c&amp;nbsp;&lt;/span&gt;" style="text;whiteSpace=wrap;html=1;" parent="v0z-nIhu8Ox-OZCHZsVR-76" vertex="1">
          <mxGeometry x="20.714285714285715" y="10" width="124.28571428571429" height="30" as="geometry" />
        </mxCell>
        <mxCell id="v0z-nIhu8Ox-OZCHZsVR-79" value="" style="group" parent="v0z-nIhu8Ox-OZCHZsVR-1" vertex="1" connectable="0">
          <mxGeometry x="317.75" y="1879" width="145" height="50" as="geometry" />
        </mxCell>
        <mxCell id="v0z-nIhu8Ox-OZCHZsVR-80" value="" style="shape=loopLimit;whiteSpace=wrap;html=1;strokeWidth=2;rotation=-180;" parent="v0z-nIhu8Ox-OZCHZsVR-79" vertex="1">
          <mxGeometry y="14" width="139.82142857142858" height="50" as="geometry" />
        </mxCell>
        <mxCell id="v0z-nIhu8Ox-OZCHZsVR-81" value="&lt;span style=&quot;text-align: center&quot;&gt;Цикл i от 0 до a&amp;nbsp;&lt;/span&gt;" style="text;whiteSpace=wrap;html=1;" parent="v0z-nIhu8Ox-OZCHZsVR-79" vertex="1">
          <mxGeometry x="20.714285714285715" y="10" width="124.28571428571429" height="30" as="geometry" />
        </mxCell>
        <mxCell id="v0z-nIhu8Ox-OZCHZsVR-82" value="Конец" style="strokeWidth=2;html=1;shape=mxgraph.flowchart.terminator;whiteSpace=wrap;" parent="v0z-nIhu8Ox-OZCHZsVR-1" vertex="1">
          <mxGeometry x="533.66" y="2007" width="130" height="40" as="geometry" />
        </mxCell>
        <mxCell id="v0z-nIhu8Ox-OZCHZsVR-83" value="" style="group" parent="v0z-nIhu8Ox-OZCHZsVR-1" vertex="1" connectable="0">
          <mxGeometry x="532.25" y="424" width="144.6428571428571" height="50" as="geometry" />
        </mxCell>
        <mxCell id="v0z-nIhu8Ox-OZCHZsVR-84" value="" style="shape=loopLimit;whiteSpace=wrap;html=1;strokeWidth=2;rotation=-180;" parent="v0z-nIhu8Ox-OZCHZsVR-83" vertex="1">
          <mxGeometry x="1.75" width="144.64285714285714" height="50" as="geometry" />
        </mxCell>
        <mxCell id="v0z-nIhu8Ox-OZCHZsVR-85" value="&lt;span&gt;Цикл j от 0 до b / 2&lt;br&gt;&lt;/span&gt;" style="text;whiteSpace=wrap;html=1;align=center;" parent="v0z-nIhu8Ox-OZCHZsVR-83" vertex="1">
          <mxGeometry x="13.218571428571465" y="10" width="128.57142857142856" height="30" as="geometry" />
        </mxCell>
        <mxCell id="v0z-nIhu8Ox-OZCHZsVR-86" style="edgeStyle=orthogonalEdgeStyle;rounded=0;orthogonalLoop=1;jettySize=auto;html=1;exitX=0.5;exitY=1;exitDx=0;exitDy=0;exitPerimeter=0;entryX=0.5;entryY=1;entryDx=0;entryDy=0;endArrow=classic;endFill=1;" parent="v0z-nIhu8Ox-OZCHZsVR-1" source="v0z-nIhu8Ox-OZCHZsVR-21" target="v0z-nIhu8Ox-OZCHZsVR-84" edge="1">
          <mxGeometry relative="1" as="geometry" />
        </mxCell>
        <mxCell id="v0z-nIhu8Ox-OZCHZsVR-88" style="edgeStyle=orthogonalEdgeStyle;rounded=0;orthogonalLoop=1;jettySize=auto;html=1;exitX=0.5;exitY=0;exitDx=0;exitDy=0;entryX=0.5;entryY=0;entryDx=0;entryDy=0;endArrow=classic;endFill=1;" parent="v0z-nIhu8Ox-OZCHZsVR-1" source="v0z-nIhu8Ox-OZCHZsVR-24" target="v0z-nIhu8Ox-OZCHZsVR-27" edge="1">
          <mxGeometry relative="1" as="geometry" />
        </mxCell>
        <mxCell id="v0z-nIhu8Ox-OZCHZsVR-89" style="edgeStyle=orthogonalEdgeStyle;rounded=0;orthogonalLoop=1;jettySize=auto;html=1;exitX=0.5;exitY=1;exitDx=0;exitDy=0;exitPerimeter=0;entryX=0.5;entryY=1;entryDx=0;entryDy=0;endArrow=classic;endFill=1;" parent="v0z-nIhu8Ox-OZCHZsVR-1" source="v0z-nIhu8Ox-OZCHZsVR-36" target="v0z-nIhu8Ox-OZCHZsVR-39" edge="1">
          <mxGeometry relative="1" as="geometry" />
        </mxCell>
        <mxCell id="v0z-nIhu8Ox-OZCHZsVR-90" style="edgeStyle=orthogonalEdgeStyle;rounded=0;orthogonalLoop=1;jettySize=auto;html=1;exitX=0.5;exitY=0;exitDx=0;exitDy=0;entryX=0.5;entryY=1;entryDx=0;entryDy=0;endArrow=classic;endFill=1;" parent="v0z-nIhu8Ox-OZCHZsVR-1" source="v0z-nIhu8Ox-OZCHZsVR-39" target="v0z-nIhu8Ox-OZCHZsVR-42" edge="1">
          <mxGeometry relative="1" as="geometry" />
        </mxCell>
        <mxCell id="v0z-nIhu8Ox-OZCHZsVR-91" style="edgeStyle=orthogonalEdgeStyle;rounded=0;orthogonalLoop=1;jettySize=auto;html=1;exitX=0.5;exitY=0;exitDx=0;exitDy=0;entryX=0.5;entryY=0;entryDx=0;entryDy=0;endArrow=classic;endFill=1;" parent="v0z-nIhu8Ox-OZCHZsVR-1" source="v0z-nIhu8Ox-OZCHZsVR-42" target="v0z-nIhu8Ox-OZCHZsVR-45" edge="1">
          <mxGeometry relative="1" as="geometry" />
        </mxCell>
        <mxCell id="v0z-nIhu8Ox-OZCHZsVR-92" style="edgeStyle=orthogonalEdgeStyle;rounded=0;orthogonalLoop=1;jettySize=auto;html=1;exitX=0.5;exitY=1;exitDx=0;exitDy=0;exitPerimeter=0;entryX=0.5;entryY=0;entryDx=0;entryDy=0;endArrow=classic;endFill=1;" parent="v0z-nIhu8Ox-OZCHZsVR-1" source="v0z-nIhu8Ox-OZCHZsVR-54" target="v0z-nIhu8Ox-OZCHZsVR-57" edge="1">
          <mxGeometry relative="1" as="geometry" />
        </mxCell>
        <mxCell id="v0z-nIhu8Ox-OZCHZsVR-93" style="edgeStyle=orthogonalEdgeStyle;rounded=0;orthogonalLoop=1;jettySize=auto;html=1;exitX=0.5;exitY=0;exitDx=0;exitDy=0;entryX=0.5;entryY=1;entryDx=0;entryDy=0;endArrow=classic;endFill=1;" parent="v0z-nIhu8Ox-OZCHZsVR-1" source="v0z-nIhu8Ox-OZCHZsVR-77" target="v0z-nIhu8Ox-OZCHZsVR-80" edge="1">
          <mxGeometry relative="1" as="geometry" />
        </mxCell>
        <mxCell id="v0z-nIhu8Ox-OZCHZsVR-94" value="Да" style="text;html=1;align=center;verticalAlign=middle;resizable=0;points=[];autosize=1;" parent="v0z-nIhu8Ox-OZCHZsVR-1" vertex="1">
          <mxGeometry x="674.25" y="1548" width="30" height="20" as="geometry" />
        </mxCell>
        <mxCell id="v0z-nIhu8Ox-OZCHZsVR-95" style="edgeStyle=orthogonalEdgeStyle;rounded=0;orthogonalLoop=1;jettySize=auto;html=1;exitX=0.5;exitY=0;exitDx=0;exitDy=0;entryX=0.5;entryY=1;entryDx=0;entryDy=0;" parent="v0z-nIhu8Ox-OZCHZsVR-1" source="v0z-nIhu8Ox-OZCHZsVR-61" target="v0z-nIhu8Ox-OZCHZsVR-77" edge="1">
          <mxGeometry relative="1" as="geometry" />
        </mxCell>
        <mxCell id="v0z-nIhu8Ox-OZCHZsVR-96" style="edgeStyle=orthogonalEdgeStyle;rounded=0;orthogonalLoop=1;jettySize=auto;html=1;exitX=0.5;exitY=0;exitDx=0;exitDy=0;entryX=0.5;entryY=0;entryDx=0;entryDy=0;entryPerimeter=0;" parent="v0z-nIhu8Ox-OZCHZsVR-1" source="v0z-nIhu8Ox-OZCHZsVR-80" target="v0z-nIhu8Ox-OZCHZsVR-67" edge="1">
          <mxGeometry relative="1" as="geometry" />
        </mxCell>
        <mxCell id="v0z-nIhu8Ox-OZCHZsVR-97" value="" style="group" parent="v0z-nIhu8Ox-OZCHZsVR-1" vertex="1" connectable="0">
          <mxGeometry x="528.75" y="1851" width="145" height="50" as="geometry" />
        </mxCell>
        <mxCell id="v0z-nIhu8Ox-OZCHZsVR-98" value="" style="shape=loopLimit;whiteSpace=wrap;html=1;strokeWidth=2;rotation=-180;" parent="v0z-nIhu8Ox-OZCHZsVR-97" vertex="1">
          <mxGeometry width="139.82142857142858" height="50" as="geometry" />
        </mxCell>
        <mxCell id="v0z-nIhu8Ox-OZCHZsVR-99" value="&lt;span style=&quot;text-align: center&quot;&gt;Цикл j от 0 до c&lt;/span&gt;" style="text;whiteSpace=wrap;html=1;" parent="v0z-nIhu8Ox-OZCHZsVR-97" vertex="1">
          <mxGeometry x="20.714285714285715" y="10" width="124.28571428571429" height="30" as="geometry" />
        </mxCell>
        <mxCell id="v0z-nIhu8Ox-OZCHZsVR-100" value="" style="group" parent="v0z-nIhu8Ox-OZCHZsVR-1" vertex="1" connectable="0">
          <mxGeometry x="528.75" y="1926" width="145" height="50" as="geometry" />
        </mxCell>
        <mxCell id="v0z-nIhu8Ox-OZCHZsVR-101" value="" style="shape=loopLimit;whiteSpace=wrap;html=1;strokeWidth=2;rotation=-180;" parent="v0z-nIhu8Ox-OZCHZsVR-100" vertex="1">
          <mxGeometry width="139.82142857142858" height="50" as="geometry" />
        </mxCell>
        <mxCell id="v0z-nIhu8Ox-OZCHZsVR-102" value="&lt;span style=&quot;text-align: center&quot;&gt;Цикл i от 0 до a&lt;/span&gt;" style="text;whiteSpace=wrap;html=1;" parent="v0z-nIhu8Ox-OZCHZsVR-100" vertex="1">
          <mxGeometry x="20.714285714285715" y="10" width="124.28571428571429" height="30" as="geometry" />
        </mxCell>
        <mxCell id="v0z-nIhu8Ox-OZCHZsVR-103" style="edgeStyle=orthogonalEdgeStyle;rounded=0;orthogonalLoop=1;jettySize=auto;html=1;exitX=0.5;exitY=0;exitDx=0;exitDy=0;entryX=0.5;entryY=1;entryDx=0;entryDy=0;endArrow=classic;endFill=1;" parent="v0z-nIhu8Ox-OZCHZsVR-1" source="v0z-nIhu8Ox-OZCHZsVR-98" target="v0z-nIhu8Ox-OZCHZsVR-101" edge="1">
          <mxGeometry relative="1" as="geometry" />
        </mxCell>
        <mxCell id="v0z-nIhu8Ox-OZCHZsVR-104" style="edgeStyle=orthogonalEdgeStyle;rounded=0;orthogonalLoop=1;jettySize=auto;html=1;exitX=0.5;exitY=0;exitDx=0;exitDy=0;entryX=0.5;entryY=1;entryDx=0;entryDy=0;" parent="v0z-nIhu8Ox-OZCHZsVR-1" target="v0z-nIhu8Ox-OZCHZsVR-98" edge="1">
          <mxGeometry relative="1" as="geometry">
            <mxPoint x="595.1607142857142" y="1822" as="sourcePoint" />
          </mxGeometry>
        </mxCell>
        <mxCell id="-acTIa8UFK9Nt6qdnvfG-0" style="edgeStyle=orthogonalEdgeStyle;rounded=0;orthogonalLoop=1;jettySize=auto;html=1;exitX=0.5;exitY=1;exitDx=0;exitDy=0;exitPerimeter=0;entryX=0.5;entryY=0;entryDx=0;entryDy=0;" parent="v0z-nIhu8Ox-OZCHZsVR-1" source="v0z-nIhu8Ox-OZCHZsVR-70" target="v0z-nIhu8Ox-OZCHZsVR-65" edge="1">
          <mxGeometry relative="1" as="geometry" />
        </mxCell>
        <mxCell id="v0z-nIhu8Ox-OZCHZsVR-69" value="" style="group" parent="v0z-nIhu8Ox-OZCHZsVR-1" vertex="1" connectable="0">
          <mxGeometry x="564.25" y="1458" width="60" height="60" as="geometry" />
        </mxCell>
        <mxCell id="v0z-nIhu8Ox-OZCHZsVR-70" value="" style="verticalLabelPosition=bottom;verticalAlign=top;html=1;shape=mxgraph.flowchart.on-page_reference;strokeWidth=2;" parent="v0z-nIhu8Ox-OZCHZsVR-69" vertex="1">
          <mxGeometry width="60" height="60" as="geometry" />
        </mxCell>
        <mxCell id="v0z-nIhu8Ox-OZCHZsVR-71" value="Г" style="text;html=1;align=center;verticalAlign=middle;resizable=0;points=[];autosize=1;" parent="v0z-nIhu8Ox-OZCHZsVR-69" vertex="1">
          <mxGeometry x="20" y="20" width="20" height="20" as="geometry" />
        </mxCell>
        <mxCell id="-mZZ8aX7LrNO84SMHjek-7" style="edgeStyle=orthogonalEdgeStyle;rounded=0;orthogonalLoop=1;jettySize=auto;html=1;" parent="v0z-nIhu8Ox-OZCHZsVR-1" source="v0z-nIhu8Ox-OZCHZsVR-101" target="v0z-nIhu8Ox-OZCHZsVR-82" edge="1">
          <mxGeometry relative="1" as="geometry" />
        </mxCell>
        <mxCell id="cRv4ARwdXAgRNxiOtPx2-2" style="edgeStyle=orthogonalEdgeStyle;rounded=0;orthogonalLoop=1;jettySize=auto;html=1;entryX=0.5;entryY=1;entryDx=0;entryDy=0;" parent="v0z-nIhu8Ox-OZCHZsVR-1" source="v0z-nIhu8Ox-OZCHZsVR-84" target="v0z-nIhu8Ox-OZCHZsVR-24" edge="1">
          <mxGeometry relative="1" as="geometry" />
        </mxCell>
        <mxCell id="cRv4ARwdXAgRNxiOtPx2-6" style="edgeStyle=orthogonalEdgeStyle;rounded=0;orthogonalLoop=1;jettySize=auto;html=1;entryX=0.506;entryY=0.036;entryDx=0;entryDy=0;entryPerimeter=0;" parent="v0z-nIhu8Ox-OZCHZsVR-1" source="v0z-nIhu8Ox-OZCHZsVR-45" target="v0z-nIhu8Ox-OZCHZsVR-47" edge="1">
          <mxGeometry relative="1" as="geometry" />
        </mxCell>
        <mxCell id="pYnH36NcbViO8IZhxfSu-0" value="" style="edgeStyle=orthogonalEdgeStyle;rounded=0;orthogonalLoop=1;jettySize=auto;html=1;" edge="1" parent="v0z-nIhu8Ox-OZCHZsVR-1" source="pYnH36NcbViO8IZhxfSu-1" target="pYnH36NcbViO8IZhxfSu-4">
          <mxGeometry relative="1" as="geometry" />
        </mxCell>
        <mxCell id="pYnH36NcbViO8IZhxfSu-1" value="&lt;span&gt;a = кол-во строк A&lt;/span&gt;" style="rounded=0;whiteSpace=wrap;html=1;strokeWidth=2;" vertex="1" parent="v0z-nIhu8Ox-OZCHZsVR-1">
          <mxGeometry x="271" y="409" width="150" height="41" as="geometry" />
        </mxCell>
        <mxCell id="pYnH36NcbViO8IZhxfSu-10" value="" style="edgeStyle=orthogonalEdgeStyle;rounded=0;orthogonalLoop=1;jettySize=auto;html=1;" edge="1" parent="v0z-nIhu8Ox-OZCHZsVR-1" source="pYnH36NcbViO8IZhxfSu-2" target="v0z-nIhu8Ox-OZCHZsVR-12">
          <mxGeometry relative="1" as="geometry" />
        </mxCell>
        <mxCell id="pYnH36NcbViO8IZhxfSu-2" value="Создание массива rowFactor длиной a" style="rounded=0;whiteSpace=wrap;html=1;strokeWidth=2;" vertex="1" parent="v0z-nIhu8Ox-OZCHZsVR-1">
          <mxGeometry x="271" y="721" width="150" height="60" as="geometry" />
        </mxCell>
        <mxCell id="pYnH36NcbViO8IZhxfSu-3" style="edgeStyle=orthogonalEdgeStyle;rounded=0;orthogonalLoop=1;jettySize=auto;html=1;entryX=0.5;entryY=0;entryDx=0;entryDy=0;" edge="1" parent="v0z-nIhu8Ox-OZCHZsVR-1" source="pYnH36NcbViO8IZhxfSu-4" target="pYnH36NcbViO8IZhxfSu-6">
          <mxGeometry relative="1" as="geometry" />
        </mxCell>
        <mxCell id="pYnH36NcbViO8IZhxfSu-4" value="&lt;span&gt;b = кол-во столбцов А&lt;/span&gt;" style="rounded=0;whiteSpace=wrap;html=1;strokeWidth=2;" vertex="1" parent="v0z-nIhu8Ox-OZCHZsVR-1">
          <mxGeometry x="271" y="486" width="150" height="44" as="geometry" />
        </mxCell>
        <mxCell id="pYnH36NcbViO8IZhxfSu-5" style="edgeStyle=orthogonalEdgeStyle;rounded=0;orthogonalLoop=1;jettySize=auto;html=1;entryX=0.5;entryY=0;entryDx=0;entryDy=0;" edge="1" parent="v0z-nIhu8Ox-OZCHZsVR-1" source="pYnH36NcbViO8IZhxfSu-6" target="pYnH36NcbViO8IZhxfSu-8">
          <mxGeometry relative="1" as="geometry" />
        </mxCell>
        <mxCell id="pYnH36NcbViO8IZhxfSu-6" value="&lt;span&gt;c = кол-во столбцов B&lt;/span&gt;" style="rounded=0;whiteSpace=wrap;html=1;strokeWidth=2;" vertex="1" parent="v0z-nIhu8Ox-OZCHZsVR-1">
          <mxGeometry x="271" y="560" width="150" height="42" as="geometry" />
        </mxCell>
        <mxCell id="pYnH36NcbViO8IZhxfSu-7" style="edgeStyle=orthogonalEdgeStyle;rounded=0;orthogonalLoop=1;jettySize=auto;html=1;entryX=0.5;entryY=0;entryDx=0;entryDy=0;" edge="1" parent="v0z-nIhu8Ox-OZCHZsVR-1" source="pYnH36NcbViO8IZhxfSu-8" target="pYnH36NcbViO8IZhxfSu-2">
          <mxGeometry relative="1" as="geometry" />
        </mxCell>
        <mxCell id="pYnH36NcbViO8IZhxfSu-8" value="Создание массива colFactor длиной c" style="rounded=0;whiteSpace=wrap;html=1;strokeWidth=2;" vertex="1" parent="v0z-nIhu8Ox-OZCHZsVR-1">
          <mxGeometry x="271" y="629" width="150" height="60" as="geometry" />
        </mxCell>
      </root>
    </mxGraphModel>
  </diagram>
</mxfile>
